<?xml version="1.0" encoding="utf-8"?>
<!-- Generator: Adobe Illustrator 23.0.3, SVG Export Plug-In . SVG Version: 6.00 Build 0)  -->
<svg version="1.1" id="katman_1" xmlns="http://www.w3.org/2000/svg" xmlns:xlink="http://www.w3.org/1999/xlink" x="0px" y="0px"
	 viewBox="0 0 100 100" style="enable-background:new 0 0 100 100;" xml:space="preserve">
<style type="text/css">
	.st0{fill:#020303;}
	.st1{fill:#E62A29;}
</style>
<g>
	<path class="st0" d="M67.6,34.5c5.5-5.1,11.9-6.9,18.8-4.2c7,2.7,11.1,8.1,11.8,15.6c0.8,6.9-1.9,12.5-7.6,16.7
		c-1.3,1.2-3.2,1.3-4.6,0.3c-1.6-1-2.6-2.6-2.1-4.4c0.4-1.2,1.2-2.3,2.1-3.2c5-4.2,4.7-12.1-0.6-15.7c-3.7-2.6-8.7-2.2-11.9,1
		c-3.4,3.3-3.9,8.6-1.1,12.4c5,7.3,10,14.6,15,21.9c0.5,0.7,1,1.3,1.5,2.1c1.3,1.9,0.9,4.5-1,5.8c-0.1,0.1-0.2,0.1-0.3,0.2
		c-2,1.4-4.3,0.9-5.8-1.2c-5.6-8.1-11.2-16.4-16.8-24.5c-1.9-2.9-2.9-6.2-2.9-9.7c0.1-0.8,0.4-1.6,0.9-2.3c0.9-1.1,1.9-2,2.9-2.9
		C68.8,39.8,69.2,38.1,67.6,34.5z"/>
	<path class="st0" d="M23.1,29.4c-8-1.8-16.3,2.6-19.8,10.5C-0.4,47.8,2,57.2,9.1,62.3c1.9,1.5,4.6,1.2,6.1-0.7
		c0.5-0.6,0.8-1.4,0.9-2.3c0.2-1.9-0.8-3.2-2.3-4.3c-3.7-2.9-4.8-8-2.5-12.1c2-4,6.6-6,10.9-4.7c6.1,1.7,8.8,9.1,5.2,14.7
		c-2.5,3.8-5.2,7.6-7.8,11.4c-1.7,2.5-1.4,4.9,1,6.4c2.1,1.5,4.4,0.9,6.1-1.5c2.6-3.7,5.2-7.6,7.8-11.3c2.1-3,3.3-6.7,3.3-10.4
		C37.9,38.9,31.7,31.3,23.1,29.4z"/>
	<path class="st1" d="M50.3,44.3c-0.7,0.8-1.3,1.8-1.6,2.8c-0.2,1.8,0.8,3.5,2.4,4.2c1.7,0.9,3.7,0.4,5-1c3.3-3.2,6.6-6.4,9.8-9.7
		c1.8-1.8,1.8-3.9,0.1-5.9c-7.7-8.5-22.7-7-28.4,3c-0.3,0.5-0.3,1.1-0.1,1.6c2.2,5.1,2.2,10.9,0,16c-0.2,0.6-0.1,1.2,0.1,1.7
		c2.8,4.5,6.8,7.7,12.3,8.3c3.2,0.3,6.5,0.4,9.7,0.3c2.4,0,3.9-1.9,3.9-4.4c0.1-2.2-1.5-4-3.7-4.2c-0.1,0-0.2,0-0.4,0h-6
		c-6.2,0-10.4-4.4-10-10.6c0.5-5.2,5.1-9.1,10.3-8.6c0.9,0.1,1.7,0.3,2.6,0.6C54.2,40.6,52.1,42.4,50.3,44.3z"/>
	<path class="st0" d="M80.3,26.6c2.9-0.4,5-3,4.6-5.9c-0.3-2.4-2.2-4.3-4.6-4.6c-2.9,0.1-5.1,2.4-5.1,5.3c0,0,0,0,0,0
		c-0.1,2.8,2.1,5.1,4.9,5.2C80.3,26.6,80.3,26.6,80.3,26.6z"/>
	<path class="st0" d="M14.6,21.2c-0.1,2.9,2.1,5.3,4.9,5.5c2.9,0.1,5.3-2.1,5.5-4.9c0-0.1,0-0.3,0-0.4c-0.1-2.9-2.5-5.1-5.3-5
		C16.9,16.3,14.7,18.5,14.6,21.2z"/>
	<path class="st1" d="M52.1,26.5c2.8,0,5.1-2.2,5.1-5c0,0,0,0,0,0c0-2.8-2.2-5.1-5.1-5.2c-2.8,0-5.1,2.2-5.1,5c0,0,0,0,0,0
		c-0.1,2.8,2.1,5.1,4.8,5.2C52,26.5,52.1,26.5,52.1,26.5z"/>
</g>
</svg>
