<?xml version="1.0" encoding="utf-8"?>
<!-- Generator: Adobe Illustrator 23.0.3, SVG Export Plug-In . SVG Version: 6.00 Build 0)  -->
<svg version="1.1" id="katman_1" xmlns="http://www.w3.org/2000/svg" xmlns:xlink="http://www.w3.org/1999/xlink" x="0px" y="0px"
	 viewBox="0 0 100 100" style="enable-background:new 0 0 100 100;" xml:space="preserve">
<style type="text/css">
	.st0{fill:#343334;}
	.st1{fill:#0675A2;}
</style>
<path class="st0" d="M2,34.5h13.9v4H6.6v4h8v4h-8v3.8H16v4H2V34.5z"/>
<path class="st0" d="M26.8,47.8h-2.9v6.4h-4.6V34.5h8.7c1,0,1.9,0.2,2.9,0.5c0.8,0.3,1.6,0.8,2.2,1.3c0.6,0.6,1.1,1.3,1.5,2.1
	c0.4,0.9,0.5,1.8,0.5,2.7c0,0.7-0.1,1.3-0.2,2c-0.2,0.6-0.4,1.2-0.7,1.7c-0.3,0.5-0.7,1-1.2,1.3c-0.5,0.4-1,0.7-1.5,1l4.2,7.1h-5.3
	L26.8,47.8z M27.7,43.9c0.4,0,0.7,0,1.1-0.2c0.3-0.1,0.6-0.3,0.9-0.5c0.3-0.2,0.4-0.5,0.6-0.8c0.1-0.4,0.2-0.7,0.2-1.1
	c0-0.4-0.1-0.8-0.2-1.1c-0.1-0.3-0.3-0.6-0.6-0.9c-0.2-0.2-0.5-0.4-0.9-0.6c-0.3-0.1-0.7-0.2-1.1-0.2h-3.9v5.4H27.7z"/>
<path class="st0" d="M38.2,34.5h8c1.4,0,2.8,0.2,4.2,0.6c1.2,0.4,2.4,1,3.3,1.9c1,0.9,1.7,1.9,2.2,3.1c0.6,1.3,0.8,2.8,0.8,4.2
	c0,1.4-0.2,2.7-0.7,4c-0.4,1.2-1.1,2.3-2,3.1c-0.9,0.9-2.1,1.6-3.3,2c-1.4,0.5-3,0.7-4.5,0.7h-8.1L38.2,34.5z M46.2,50.3
	c2,0,3.5-0.5,4.5-1.5c1-1,1.6-2.5,1.5-4.4c0-0.8-0.1-1.7-0.4-2.5c-0.5-1.4-1.6-2.6-3-3.1c-0.9-0.3-1.8-0.4-2.7-0.4h-3.3v11.9H46.2z"
	/>
<path class="st0" d="M60.3,34.5h13.9v4h-9.3v4h2.2v4h-2.2v3.8h9.4v4h-14V34.5z"/>
<path class="st0" d="M87.2,49l-5-7v12.3h-4.6V34.5h4l6.1,8.4l6.2-8.4h4v19.8h-4.6V42.1l-5.1,7H87.2z"/>
<path class="st1" d="M69.9,44.8l-0.8,0.8c-0.1,0.1-0.1,0.2,0,0.3c0.1,0.1,0.2,0.1,0.3,0l1.2-1.2l0,0l0,0l0,0l0,0v-0.1l0,0v-0.1l0,0
	l0,0l0,0l0,0l-1.2-1.2c0,0-0.1-0.1-0.2-0.1c-0.1,0-0.2,0.1-0.2,0.2c0,0.1,0,0.1,0.1,0.2l0.8,0.8H58.9c-0.1,0-0.2,0.1-0.2,0.2
	c0,0,0,0,0,0c0,0.1,0.1,0.2,0.2,0.2L69.9,44.8L69.9,44.8z"/>
<path class="st1" d="M73.1,42.2c0-0.1,0.1-0.2,0.1-0.3c0-0.4-0.3-0.7-0.7-0.7c-0.2,0-0.3,0-0.4,0.1c-1.4-0.7-3-0.4-4,0.7
	c-0.1,0.1-0.1,0.2,0,0.3c0,0,0,0,0,0c0.1,0.1,0.1,0.1,0.2,0.1c0,0,0.1,0,0.1-0.1c0.2-0.2,0.4-0.4,0.7-0.5c0.9-0.5,1.9-0.5,2.8-0.1
	c0,0.1,0,0.1,0,0.2c0,0.4,0.3,0.7,0.7,0.7c0.1,0,0.2,0,0.3-0.1c1.1,1.3,0.9,3.2-0.3,4.3c-1.2,1-3,1-4.1-0.2c0,0-0.1-0.1-0.1-0.1
	c-0.1,0-0.3,0-0.3,0.2c0,0.1,0,0.2,0.1,0.2c0.1,0.1,0.1,0.1,0.2,0.2c0.1,0.1,0.1,0.1,0.2,0.2c1.6,1.1,3.8,0.8,4.9-0.8
	C74.3,45.2,74.2,43.4,73.1,42.2L73.1,42.2z M72.5,42.1c-0.1,0-0.2-0.1-0.2-0.2c0-0.1,0.1-0.2,0.2-0.2c0,0,0,0,0,0
	c0.1,0,0.2,0.1,0.2,0.2l0,0C72.7,42,72.6,42.1,72.5,42.1C72.5,42.1,72.5,42.1,72.5,42.1z"/>
<path class="st1" d="M72.1,42.8c-0.4-0.4-1-0.6-1.6-0.6c-0.1,0-0.3,0-0.3,0.1c0,0.1,0,0.3,0.1,0.3c0.1,0,0.1,0,0.2,0
	c1,0,1.9,0.8,1.9,1.9c0,0.8-0.5,1.5-1.3,1.8c-0.2-0.3-0.6-0.4-1-0.2c-0.3,0.2-0.4,0.6-0.2,1c0.1,0.2,0.3,0.3,0.5,0.3
	c0.1,0,0.1,0,0.2,0c0.3,0,0.6-0.3,0.7-0.6l0,0c0.5-0.2,0.9-0.4,1.2-0.8l0,0C73.1,44.9,73,43.6,72.1,42.8L72.1,42.8z M70.5,46.9
	c-0.1,0-0.2-0.1-0.2-0.2l0,0c0-0.1,0.1-0.2,0.2-0.2c0,0,0,0,0,0c0.1,0,0.2,0.1,0.2,0.2C70.7,46.8,70.6,46.9,70.5,46.9L70.5,46.9z"/>
<path class="st1" d="M75.2,44.5c0-2.6-2.1-4.7-4.7-4.7c-1.2,0-2.4,0.5-3.3,1.4c-0.1,0.1-0.1,0.2,0,0.3c0.1,0.1,0.2,0.1,0.3,0
	c1.6-1.7,4.3-1.7,6-0.1c1.5,1.4,1.7,3.8,0.5,5.5c-0.1,0-0.1,0-0.2,0c-0.4,0-0.7,0.3-0.7,0.7v0c0,0.1,0,0.2,0.1,0.3
	c-1.7,1.3-4.1,1.2-5.6-0.3c0,0-0.1-0.1-0.2-0.1c-0.1,0-0.2,0.1-0.2,0.2c0,0.1,0,0.1,0.1,0.2c0.8,0.8,1.9,1.3,3,1.3h0.3
	c0.5,0,1.1-0.1,1.6-0.3c0.5-0.2,0.9-0.4,1.3-0.8c0.1,0.1,0.2,0.1,0.3,0.1c0.4,0,0.7-0.3,0.7-0.7v0c0-0.1,0-0.3-0.1-0.4
	C74.9,46.4,75.2,45.5,75.2,44.5z M73.8,47.8c-0.1,0-0.2-0.1-0.2-0.2c0-0.1,0.1-0.2,0.2-0.2c0.1,0,0.2,0.1,0.2,0.2
	C74,47.7,73.9,47.8,73.8,47.8L73.8,47.8z"/>
<path class="st1" d="M2.4,61.9v-4h2.7v0.3H2.8v1.4h2.1V60H2.8v1.6h2.4v0.3L2.4,61.9z"/>
<path class="st1" d="M7.6,59.1v0.3H7.5c-0.1-0.1-0.3-0.2-0.5-0.2c-0.4,0-0.7,0.4-0.7,1v1.6H5.9V59h0.3v0.4c0.1-0.3,0.5-0.5,0.8-0.5
	C7.2,58.9,7.5,59,7.6,59.1z"/>
<path class="st1" d="M8.4,58c0.1,0,0.3,0.1,0.3,0.3c0,0.1-0.1,0.3-0.3,0.3c-0.1,0-0.3-0.1-0.3-0.3c0,0,0,0,0,0
	C8.2,58.1,8.3,58,8.4,58C8.4,57.9,8.4,57.9,8.4,58z M8.3,59h0.4v2.8H8.3V59z"/>
<path class="st1" d="M10.5,62l0,0.2c0.3,0,0.6,0.2,0.6,0.5c0,0,0,0,0,0.1c0,0.3-0.2,0.6-0.5,0.6c0,0-0.1,0-0.1,0
	c-0.3,0-0.6-0.2-0.6-0.5v-0.1h0.2c0,0.2,0.2,0.4,0.4,0.4c0,0,0,0,0,0c0.2,0,0.4-0.1,0.4-0.3c0,0,0,0,0,0c0-0.2-0.2-0.4-0.4-0.4
	c0,0,0,0-0.1,0h-0.2l0.1-0.4c-0.4,0-0.8-0.3-1-0.7V61h0.3c0.1,0.4,0.5,0.7,0.9,0.6c0.4,0,0.8-0.2,0.8-0.6c0-0.7-2-0.2-2-1.3
	c0-0.5,0.4-0.8,1.1-0.8c0.6,0,1,0.2,1.1,0.6v0.2h-0.3c0-0.2-0.3-0.4-0.8-0.4s-0.8,0.2-0.8,0.5c0,0.8,2,0.2,2,1.3
	C11.6,61.6,11.1,62,10.5,62C10.5,62,10.5,62,10.5,62z"/>
<path class="st1" d="M12.5,58c0.1,0,0.3,0.1,0.3,0.3c0,0.1-0.1,0.3-0.3,0.3c-0.1,0-0.3-0.1-0.3-0.3c0,0,0,0,0,0
	C12.2,58.1,12.3,58,12.5,58C12.5,57.9,12.5,57.9,12.5,58z M12.3,59h0.4v2.8h-0.4V59z"/>
<path class="st1" d="M13.6,57.7h0.4v4.1h-0.4V57.7z"/>
<path class="st1" d="M17.6,60.4c0,0.1,0,0.2,0,0.4H15c0.1,0.5,0.6,0.9,1.1,0.9c0.4,0,0.8-0.2,1-0.5h0.3v0.2C17,62,16,62.2,15.3,61.7
	c-0.5-0.3-0.7-0.8-0.7-1.3c0-0.8,0.7-1.5,1.5-1.5C16.9,58.9,17.6,59.6,17.6,60.4L17.6,60.4L17.6,60.4z M15,60.5h2.2
	c0.1-0.6-0.4-1.2-1-1.2c0,0-0.1,0-0.1,0c-0.6,0-1.1,0.5-1.1,1.1C15,60.3,15,60.4,15,60.5L15,60.5z"/>
<path class="st1" d="M18.6,57.7v1.8c0.2-0.4,0.7-0.7,1.1-0.6c0.8,0,1.5,0.7,1.5,1.5c0,0.8-0.7,1.5-1.5,1.5c-0.8,0-1.5-0.6-1.5-1.4
	c0,0,0-0.1,0-0.1v-2.7L18.6,57.7z M19.7,59.2c-0.7,0-1.2,0.5-1.3,1.2c0,0.7,0.5,1.2,1.2,1.3c0.7,0,1.2-0.5,1.3-1.2c0,0,0,0,0-0.1
	C20.9,59.8,20.4,59.3,19.7,59.2C19.8,59.2,19.7,59.2,19.7,59.2z"/>
<path class="st1" d="M22.1,58c0.1,0,0.3,0.1,0.3,0.3s-0.1,0.3-0.3,0.3c-0.1,0-0.3-0.1-0.3-0.3c0,0,0,0,0,0C21.9,58.1,22,58,22.1,58
	C22.1,57.9,22.1,57.9,22.1,58z M21.9,59h0.4v2.8h-0.4V59z"/>
<path class="st1" d="M23.2,57.7h0.4v4.1h-0.4L23.2,57.7z"/>
<path class="st1" d="M24.6,58c0.1,0,0.3,0.1,0.3,0.3c0,0.1-0.1,0.3-0.3,0.3c-0.1,0-0.3-0.1-0.3-0.3c0,0,0,0,0,0
	C24.3,58.1,24.4,58,24.6,58C24.6,57.9,24.6,57.9,24.6,58z M24.5,59h0.4v2.8h-0.4V59z"/>
<path class="st1" d="M27.5,59.1v0.3h-0.2c-0.1-0.1-0.3-0.2-0.5-0.2c-0.4,0-0.7,0.4-0.7,1v1.6h-0.4V59H26v0.4
	c0.1-0.3,0.4-0.5,0.8-0.5C27.1,58.9,27.3,59,27.5,59.1z"/>
<path class="st1" d="M28,57.7h0.4v4.1H28V57.7z"/>
<path class="st1" d="M29.5,58c0.1,0,0.3,0.1,0.3,0.3s-0.1,0.3-0.3,0.3c-0.1,0-0.3-0.1-0.3-0.3c0,0,0,0,0,0
	C29.2,58.1,29.3,58,29.5,58C29.5,57.9,29.5,57.9,29.5,58z M29.3,59h0.4v2.8h-0.4V59z"/>
<path class="st1" d="M32.3,59h0.3v0.2l-1.4,1.2l1.4,1.3v0.2h-0.3l-1.4-1.3v1.3h-0.4v-4.1h0.4v2.5L32.3,59z"/>
<path class="st1" d="M36.2,61.9H35v-4h1.2c1.4,0,2.3,0.8,2.3,2S37.6,61.9,36.2,61.9z M35.4,58.2v3.3h0.8c1.2,0,1.9-0.6,1.9-1.7
	s-0.8-1.6-1.9-1.6L35.4,58.2z"/>
<path class="st1" d="M42,60.4c0,0.1,0,0.2,0,0.4h-2.5c0.1,0.5,0.5,0.9,1.1,0.9c0.4,0,0.8-0.2,1-0.5h0.3v0.2
	c-0.3,0.4-0.8,0.7-1.3,0.7c-0.8,0-1.5-0.7-1.5-1.5c0,0,0-0.1,0-0.1c0-0.8,0.6-1.5,1.4-1.6c0.8,0,1.5,0.6,1.6,1.4
	C42,60.3,42,60.3,42,60.4z M39.4,60.5h2.2c0.1-0.6-0.4-1.2-1-1.2c0,0-0.1,0-0.1,0c-0.6,0-1.1,0.5-1.1,1.1
	C39.4,60.3,39.4,60.4,39.4,60.5L39.4,60.5z"/>
<path class="st1" d="M45.6,60.4v1.4c0,0.8-0.6,1.4-1.3,1.4c0,0-0.1,0-0.1,0c-0.7,0-1.3-0.4-1.5-1.1V62h0.3c0.1,0.6,0.6,1,1.2,0.9
	c0.6,0,1.1-0.4,1.1-1c0,0,0-0.1,0-0.1v-0.6C45,61.7,44.5,62,44,62c-0.8,0-1.5-0.7-1.5-1.5c0-0.8,0.7-1.5,1.5-1.5
	C44.9,58.9,45.6,59.6,45.6,60.4C45.6,60.4,45.6,60.4,45.6,60.4z M42.9,60.4c0,0.6,0.4,1.2,1.1,1.2c0,0,0.1,0,0.1,0
	c0.6,0,1.1-0.5,1.2-1.1c0,0,0-0.1,0-0.1c0-0.6-0.5-1.2-1.2-1.2C43.4,59.3,42.9,59.8,42.9,60.4C42.9,60.4,42.9,60.4,42.9,60.4z
	 M43.4,57.9v-0.2h0.3c0,0.4,0.2,0.7,0.4,0.7c0.3,0,0.4-0.3,0.4-0.7h0.3v0.2c0,0.4-0.3,0.8-0.7,0.8c-0.4,0-0.8-0.3-0.8-0.7
	C43.3,58,43.3,58,43.4,57.9L43.4,57.9z"/>
<path class="st1" d="M49.2,60.4c0,0.1,0,0.2,0,0.4h-2.5c0.1,0.5,0.6,0.9,1.1,0.9c0.4,0,0.8-0.2,1-0.5H49v0.2
	c-0.3,0.4-0.8,0.7-1.3,0.7c-0.8,0-1.5-0.7-1.5-1.5c0,0,0-0.1,0-0.1c0-0.8,0.6-1.5,1.4-1.6c0.8,0,1.5,0.6,1.6,1.4
	C49.2,60.3,49.2,60.3,49.2,60.4L49.2,60.4z M46.5,60.5h2.2c0.1-0.6-0.4-1.2-1-1.2c0,0-0.1,0-0.1,0c-0.6,0-1.1,0.5-1.1,1.1
	C46.5,60.3,46.5,60.4,46.5,60.5L46.5,60.5z"/>
<path class="st1" d="M51.6,59.1v0.3h-0.2c-0.1-0.1-0.3-0.2-0.5-0.2c-0.4,0-0.7,0.4-0.7,1v1.6h-0.4V59h0.3v0.4
	c0.1-0.3,0.5-0.5,0.8-0.5C51.2,58.9,51.5,59,51.6,59.1z"/>
<path class="st1" d="M52.2,57.7h0.4v4.1h-0.4V57.7z"/>
<path class="st1" d="M56.2,60.4c0,0.1,0,0.2,0,0.4h-2.5c0.1,0.5,0.6,0.9,1.1,0.9c0.4,0,0.8-0.2,1-0.5h0.3v0.2
	c-0.3,0.4-0.8,0.7-1.3,0.7c-0.8,0-1.5-0.7-1.5-1.5c0,0,0-0.1,0-0.1c0-0.8,0.6-1.5,1.4-1.6c0.8,0,1.5,0.6,1.6,1.4
	C56.2,60.3,56.2,60.3,56.2,60.4z M53.6,60.5h2.2c0.1-0.6-0.4-1.2-1-1.2c0,0-0.1,0-0.1,0c-0.6,0-1.1,0.5-1.1,1.1
	C53.6,60.3,53.6,60.4,53.6,60.5L53.6,60.5z"/>
<path class="st1" d="M59.5,60.2v1.7h-0.4v-1.6c0.1-0.5-0.3-0.9-0.8-1c0,0-0.1,0-0.1,0c-0.5,0-0.9,0.4-0.9,0.9c0,0,0,0.1,0,0.1v1.7
	H57V59h0.4v0.4c0.2-0.3,0.6-0.6,1-0.5C58.9,58.9,59.5,59.4,59.5,60.2C59.5,60.1,59.5,60.1,59.5,60.2z"/>
<path class="st1" d="M63.1,57.7v2.7c0,0.8-0.6,1.5-1.4,1.5c0,0-0.1,0-0.1,0c-0.8,0-1.5-0.7-1.5-1.5c0-0.8,0.7-1.5,1.5-1.5
	c0.5,0,0.9,0.2,1.1,0.6v-1.8L63.1,57.7z M61.6,61.7c0.7,0,1.2-0.6,1.1-1.3c0-0.6-0.5-1.1-1.1-1.1c-0.7,0-1.2,0.6-1.1,1.3
	C60.5,61.1,61,61.6,61.6,61.7z"/>
<path class="st1" d="M64.1,58c0.1,0,0.3,0.1,0.3,0.3c0,0.1-0.1,0.3-0.3,0.3c-0.1,0-0.3-0.1-0.3-0.3c0,0,0,0,0,0
	C63.9,58.1,64,58,64.1,58C64.1,57.9,64.1,57.9,64.1,58z M64,59h0.4v2.8H64L64,59z"/>
<path class="st1" d="M67,59.1v0.3h-0.2c-0.1-0.1-0.3-0.2-0.5-0.2c-0.4,0-0.7,0.4-0.7,1v1.6h-0.4V59h0.3v0.4c0.1-0.3,0.4-0.5,0.8-0.5
	C66.6,58.9,66.8,59,67,59.1z"/>
<path class="st1" d="M67.9,59.4c0.2-0.3,0.5-0.5,0.9-0.5c0.4,0,0.8,0.2,1,0.6c0.2-0.4,0.6-0.7,1-0.6c0.6,0,1.1,0.5,1.1,1.1
	c0,0,0,0.1,0,0.1v1.7h-0.4v-1.7c0-0.5-0.3-0.9-0.8-0.9c0,0,0,0-0.1,0c-0.5,0-0.9,0.4-0.9,0.8c0,0,0,0,0,0.1v1.7h-0.4v-1.7
	c0-0.4-0.3-0.8-0.7-0.9c0,0-0.1,0-0.1,0c-0.5,0-0.8,0.4-0.9,0.8c0,0,0,0.1,0,0.1v1.7h-0.4V59h0.3L67.9,59.4z"/>
<path class="st1" d="M75.5,60.4c0,0.1,0,0.2,0,0.4H73c0.1,0.5,0.6,0.9,1.1,0.9c0.4,0,0.8-0.2,1-0.5h0.3v0.2C75.1,61.7,74.6,62,74,62
	c-0.8,0-1.5-0.7-1.5-1.5c0,0,0-0.1,0-0.1c0-0.8,0.6-1.5,1.4-1.6c0.8,0,1.5,0.6,1.6,1.4C75.6,60.3,75.6,60.3,75.5,60.4z M72.9,60.5
	h2.2c0.1-0.6-0.4-1.2-1-1.2c0,0-0.1,0-0.1,0c-0.6,0-1.1,0.5-1.1,1.1C72.9,60.3,72.9,60.4,72.9,60.5L72.9,60.5z"/>
<path class="st1" d="M78.5,57.9l1.7,3.5l1.7-3.5h0.5v4h-0.4v-3.4l-1.7,3.4h-0.3l-1.7-3.4v3.4H78v-4H78.5z"/>
<path class="st1" d="M84.7,62c-0.8,0-1.5-0.7-1.6-1.5c0-0.8,0.7-1.5,1.5-1.6c0.8,0,1.5,0.7,1.6,1.5c0,0,0,0,0,0
	c0,0.8-0.6,1.5-1.4,1.5C84.8,62,84.7,62,84.7,62z M84.7,59.2c-0.7,0-1.2,0.5-1.3,1.2c0,0.7,0.5,1.2,1.2,1.3c0.7,0,1.2-0.5,1.3-1.2
	c0,0,0,0,0-0.1C85.9,59.8,85.4,59.3,84.7,59.2C84.7,59.2,84.7,59.2,84.7,59.2L84.7,59.2z"/>
<path class="st1" d="M89.7,57.7v2.7c0,0.8-0.6,1.5-1.4,1.5c0,0-0.1,0-0.1,0c-0.8,0-1.5-0.7-1.5-1.5c0-0.8,0.7-1.5,1.5-1.5
	c0.5,0,0.9,0.2,1.1,0.6v-1.8L89.7,57.7z M88.2,61.7c0.7,0,1.2-0.6,1.1-1.3c0-0.6-0.5-1.1-1.1-1.1c-0.7,0-1.2,0.6-1.1,1.3
	C87.1,61.1,87.6,61.6,88.2,61.7z"/>
<path class="st1" d="M90.5,60.7V59h0.4v1.6c-0.1,0.5,0.3,0.9,0.8,1c0,0,0.1,0,0.1,0c0.5,0,0.9-0.4,0.9-0.9c0,0,0,0,0-0.1V59H93v2.8
	h-0.4v-0.4c-0.2,0.3-0.6,0.6-1,0.5C91,62,90.5,61.4,90.5,60.7C90.5,60.8,90.5,60.7,90.5,60.7z M91.1,58c0.1,0,0.2,0.1,0.3,0.2
	c0,0,0,0,0,0c0,0.1-0.1,0.2-0.2,0.3c0,0,0,0,0,0c-0.1,0-0.2-0.1-0.3-0.2c0,0,0,0,0,0C90.8,58.1,90.9,58,91.1,58
	C91.1,58,91.1,58,91.1,58L91.1,58z M92.4,58c0.1,0,0.2,0.1,0.3,0.2c0,0,0,0,0,0c0,0.1-0.1,0.2-0.2,0.3c0,0,0,0,0,0
	c-0.1,0-0.2-0.1-0.3-0.2c0,0,0,0,0,0C92.1,58.1,92.2,58,92.4,58C92.4,58,92.4,58,92.4,58L92.4,58z"/>
<path class="st1" d="M93.9,57.7h0.4v4.1h-0.4V57.7z"/>
<path class="st1" d="M95,60.7V59h0.4v1.6c-0.1,0.5,0.3,0.9,0.8,1c0,0,0.1,0,0.1,0c0.5,0,0.9-0.4,0.9-0.9c0,0,0-0.1,0-0.1V59h0.4v2.8
	h-0.4v-0.4c-0.2,0.3-0.6,0.6-1,0.5C95.6,62,95.1,61.5,95,60.7C95,60.8,95,60.7,95,60.7z M95.7,58c0.1,0,0.2,0.1,0.3,0.2c0,0,0,0,0,0
	c0,0.1-0.1,0.3-0.3,0.3c-0.1,0-0.3-0.1-0.3-0.3c0,0,0,0,0,0C95.4,58.1,95.5,58,95.7,58C95.6,58,95.7,58,95.7,58L95.7,58z M97,58
	c0.1,0,0.2,0.1,0.3,0.2c0,0,0,0,0,0c0,0.1-0.1,0.3-0.3,0.3c-0.1,0-0.3-0.1-0.3-0.3c0,0,0,0,0,0C96.7,58.1,96.8,58,97,58
	C97,58,97,58,97,58z"/>
</svg>
