<?xml version="1.0" encoding="utf-8"?>
<!-- Generator: Adobe Illustrator 22.1.0, SVG Export Plug-In . SVG Version: 6.00 Build 0)  -->
<svg version="1.1"
	 id="svg2" xmlns:cc="http://creativecommons.org/ns#" xmlns:dc="http://purl.org/dc/elements/1.1/" xmlns:rdf="http://www.w3.org/1999/02/22-rdf-syntax-ns#" xmlns:svg="http://www.w3.org/2000/svg"
	 xmlns="http://www.w3.org/2000/svg" xmlns:xlink="http://www.w3.org/1999/xlink" x="0px" y="0px" viewBox="0 0 400 400"
	 style="enable-background:new 0 0 400 400;" xml:space="preserve">
<style type="text/css">
	.st0{fill:#C42D43;}
</style>
<g>
	<path class="st0" d="M352,79.8C321.8,56.1,281.8,43,239.3,43c-42.5,0-82.5,13.1-112.6,36.8c-8.3,6.6-15.6,13.7-21.9,21.4
		c0.1,0,0.2,0,0.3,0l0.2,0.3c8-1.1,16.2-1.6,24.3-1.6c38.4,0,74.8,12,102.4,33.7c29.4,23.2,45.6,54.5,45.6,88.3
		c0,14.9-3.2,29.4-9.4,43.1c-2.2,5-4.9,9.9-8,14.5c-4,6.3-8.8,12.3-14.2,17.9l0.2,0.3c0,0.1-0.1,0.1-0.2,0.2
		c9.8-0.3,19.5-1.3,28.9-3h0l50.7,42.5c1.6,1.3,3.9,0.1,3.9-1.9l-2.4-58.2c8.8-4.6,17.1-10,24.8-16c30.6-24.1,47.5-56.3,47.5-90.6
		C399.5,136.1,382.6,103.9,352,79.8z"/>
	<path class="st0" d="M258.8,221.7c0-27.8-13.6-53.9-38.4-73.4c-24.3-19.1-56.5-29.6-90.7-29.6c-7.4,0-14.8,0.5-22,1.5
		c-5.9,0.8-11.7,1.9-17.4,3.4c-19.1,4.9-36.6,13.3-51.3,24.8c-24.8,19.5-38.4,45.5-38.4,73.4c0,27.8,13.6,53.9,38.4,73.4
		c6,4.7,12.4,8.9,19.2,12.5L56.2,354c-0.1,2.5,2.8,4,4.7,2.3l40.6-34c9.1,1.6,18.5,2.4,28.1,2.4c33.2,0,64.5-9.9,88.6-28
		c0.7-0.5,1.4-1.1,2.1-1.6c4.4-3.4,8.4-7.1,12-10.9c4.6-4.8,8.6-9.9,12.1-15.2c2.5-3.9,4.8-7.9,6.6-12.1
		C256.2,245.8,258.8,234,258.8,221.7z M214.3,282.7c-4.8,4-10.1,7.7-15.8,11c-19.2,11.1-43,17.6-68.8,17.6c-4.8,0-9.5-0.2-14.1-0.7
		c-5.5-0.5-10.9-1.3-16.1-2.4c-1-0.2-2.1,0-2.9,0.7l-11.5,9.6l-14.4,12.1l0.7-16.8l0.5-12.2c0.1-1.4-0.7-2.6-2-3.2
		c-3.9-1.8-7.6-3.8-11.2-5.9C31.6,276,14,250.5,14,221.7c0-36.8,28.8-68.4,69.8-82.2c5.1-1.7,10.5-3.2,15.9-4.3c9.5-2,19.5-3,29.9-3
		c63.8,0,115.6,40.2,115.6,89.5C245.3,245.3,233.5,266.7,214.3,282.7z"/>
	<path class="st0" d="M137.5,259.4c-5.3-2.8-12.5-2.4-17.4,1c-4.9,3.4-7.2,9.6-5.1,15.3c2.2,6,8.4,9.2,14.6,9.2
		c6.7,0,13.5-3.8,14.9-10.8C145.8,268.1,143,262.2,137.5,259.4z"/>
	<path class="st0" d="M120,163.1c-3.7,0.6-7.3,1.5-10.7,2.8c-1.7,0.6-3.4,1.4-5.1,2.2l0,0c-1.9,1-3.1,2.9-3.1,5.1v17.6
		c0,1.6,1.8,2.5,3.1,1.5c5.6-4.2,12.2-7.1,19.2-8.1c6.6-0.9,14.5,0.5,16.9,7.8c2.3,7.3-2,14-7.1,18.9c-5.4,5.2-11.7,9.4-14.9,16.4
		c-2.8,6.2-3,14-0.8,20.5c0.2,0.5,0.6,0.8,1.1,0.8h18.9c0.9,0,1.5-0.9,1.1-1.7c-1.3-3-1.4-6.7-0.7-9.8c0.9-3.9,3.4-7,6.2-9.7
		c5.9-5.6,12.8-10.3,17.5-17.2c7.4-11.1,7.6-28-1.8-38C150,162,133.1,161,120,163.1z"/>
</g>
</svg>
