<?xml version="1.0" encoding="utf-8"?>
<!-- Generator: Adobe Illustrator 23.0.3, SVG Export Plug-In . SVG Version: 6.00 Build 0)  -->
<svg version="1.1" id="katman_1" xmlns="http://www.w3.org/2000/svg" xmlns:xlink="http://www.w3.org/1999/xlink" x="0px" y="0px"
	 viewBox="0 0 100 100" style="enable-background:new 0 0 100 100;" xml:space="preserve">
<style type="text/css">
	.st0{fill:#020203;}
	.st1{fill:#656566;}
	.st2{fill:#464545;}
	.st3{fill:#6D7172;}
	.st4{fill:#B6B7BA;}
	.st5{fill:#636768;}
	.st6{fill:#FFFFFF;}
	.st7{fill:#656465;}
	.st8{fill:#3A3A3B;}
</style>
<path class="st0" d="M4,70C15.6,66.5,23,57.8,29.9,48.7c5.5-7.1,9.3-15.2,13.7-22.9C50.6,13.5,61,6.7,74.8,4.2
	c3.9-0.7,5.3,0.9,5.7,4.1c0.5,4,1,8-0.8,11.8c-3.8,8-3.4,15.8,1.7,23.2c0.4,0.5,0.4,1.3,0.7,2.4c-5.7-0.8-9.6-4.3-13.7-7.1
	c-5.2-3.4-10.7-5.6-16.9-6.4c-1.9-0.2-4.1-0.5-4.8,1.8c-0.9,2.7,1.4,3.5,3.3,4.4c3.7,1.8,8,2.6,11.4,5.1c0.2,1.1,0,1.7-1.3,1.2
	c-4.5-0.7-9-1.6-13.5-2.2c-2.8-0.4-6.4-0.8-6.7,3.2c-0.3,3.2,3.1,3.3,5.5,3.7c6.4,1.2,13.1,1.8,18.6,6.2c-6.3-1.1-12.6-2.1-18.9-0.3
	c-1.9,0.5-4.6,0.7-4.1,3.7c0.4,2.7,2.8,2.8,4.9,2.7c6.4-0.5,12.5,0.5,19.6,3.1c-8.4,2.7-15.8,3.9-22.9-0.2c-4-2.3-7.1-1.9-10.3,1.1
	c-7.3,7-9.6,15.7-8.3,25.5c0.2,1.7,0.5,3.4,0.8,5c-5.9,0-11.8-0.2-17.8,0.1c-2.5,0.1-3-0.5-2.9-2.9C4.1,85.6,4,77.8,4,70z"/>
<path class="st1" d="M58.4,73.4c1.2-1.1,2.4-1.5,3.8-0.7c0.2,0.1,0.2,0.8,0,1C61,74.8,59.8,75.1,58.4,73.4z"/>
<path class="st2" d="M60,44.9c0.4-0.4,0.8-0.8,1.3-1.2c1.4,0.5,2.8,0.8,3.6,3.1C62.9,46.2,61.3,46.3,60,44.9z"/>
<path class="st3" d="M62,27.6c-0.4-0.5-0.9-1.1-1.3-1.6c3.1-0.7,6.2-3.7,9.2,0.3c-1.4,1.5-3.3,1.8-5.1,2C63.8,28.3,62.8,28,62,27.6z
	"/>
<path class="st4" d="M62,27.6c0.9-0.1,1.9-0.1,2.8-0.2c1.7-0.1,3.3,0,4.7,1.2c0.4,0.4,0.9,0.8,1.3,1.2c0.1,1.1-0.3,1.6-1.5,1.4
	C66.8,30.1,63.8,30.1,62,27.6z"/>
<path class="st5" d="M69.5,28.6c-1.7,0.1-3.3,0.1-4.7-1.2c1.4-1.6,3.3-0.8,5-1.1C71.1,27.3,69.2,27.8,69.5,28.6z"/>
<path class="st6" d="M71.2,18.2c-2.2,0.3-4.3,0.6-7.5,1.1C66.3,16.1,68.8,17.9,71.2,18.2z"/>
<path class="st7" d="M70.6,35.6c-0.1,0.8-0.1,1.7-1,1.7c-1.1,0-1.6-0.8-1.4-1.9c0.1-0.7,0.1-1.6,1-1.6
	C70.3,33.7,70.5,34.7,70.6,35.6z"/>
<path class="st8" d="M69.3,31.2c0.5-0.5,1-0.9,1.5-1.4c1.2,0,2.9,0.4,2.3,1.6C72.1,33.1,70.5,32,69.3,31.2z"/>
</svg>
