<?xml version="1.0" encoding="utf-8"?>
<!-- Generator: Adobe Illustrator 23.0.3, SVG Export Plug-In . SVG Version: 6.00 Build 0)  -->
<svg version="1.1" id="katman_1" xmlns="http://www.w3.org/2000/svg" xmlns:xlink="http://www.w3.org/1999/xlink" x="0px" y="0px"
	 viewBox="0 0 100 100" style="enable-background:new 0 0 100 100;" xml:space="preserve">
<style type="text/css">
	.st0{opacity:0.43;}
	.st1{fill:#AF8849;}
	.st2{fill:none;}
	.st3{fill:#FFFFFF;}
</style>
<g>
	<g>
		<g class="st0">
			<path class="st1" d="M21.6,41.3c0,0,11.2,5.7,18.4-4.6C40,36.7,31,53.9,21.6,41.3z"/>
			<path class="st1" d="M21.6,41.3c0,0,12.4-1.9,12.2-14.5C33.8,26.8,36.6,46,21.6,41.3z"/>
			<path class="st1" d="M21.6,41.3c0,0,8.9-8.9,1.3-18.9C23,22.4,36.5,36.3,21.6,41.3z"/>
			<path class="st1" d="M21.6,41.3c0,0,1.9-12.4-10-16.1C11.6,25.3,30.7,28.6,21.6,41.3z"/>
			<path class="st1" d="M21.6,41.3c0,0-5.7-11.2-17.5-7.1C4.1,34.2,21.4,25.7,21.6,41.3z"/>
			<path class="st1" d="M21.6,41.3c0,0-11.2-5.7-18.4,4.6C3.3,45.9,12.3,28.8,21.6,41.3z"/>
			<path class="st1" d="M21.6,41.3c0,0-12.4,1.9-12.2,14.5C9.5,55.9,6.7,36.7,21.6,41.3z"/>
			<path class="st1" d="M21.6,41.3c0,0-8.9,8.9-1.3,18.9C20.3,60.2,6.8,46.4,21.6,41.3z"/>
			<path class="st1" d="M21.6,41.3c0,0-1.9,12.4,10,16.1C31.7,57.4,12.6,54.1,21.6,41.3z"/>
			<path class="st1" d="M21.6,41.3c0,0,5.7,11.2,17.5,7.1C39.2,48.4,21.9,57,21.6,41.3z"/>
		</g>
		<g>
			<path class="st1" d="M20,42c0,0,11.2,5.7,18.4-4.6C38.4,37.5,29.4,54.6,20,42z"/>
			<path class="st1" d="M20,42c0,0,12.4-1.9,12.2-14.5C32.2,27.5,35,46.7,20,42z"/>
			<path class="st1" d="M20,42c0,0,8.9-8.9,1.3-18.9C21.3,23.2,34.8,37,20,42z"/>
			<path class="st1" d="M20,42C20,42,22,29.6,10,26C10,26,29.1,29.3,20,42z"/>
			<path class="st1" d="M20,42c0,0-5.7-11.2-17.5-7.1C2.4,35,19.8,26.4,20,42z"/>
			<path class="st1" d="M20,42c0,0-11.2-5.7-18.4,4.6C1.6,46.6,10.7,29.6,20,42z"/>
			<path class="st1" d="M20,42C20,42,7.6,44,7.9,56.5C7.9,56.5,5.1,37.4,20,42z"/>
			<path class="st1" d="M20,42c0,0-8.9,8.9-1.3,18.9C18.7,60.9,5.2,47.1,20,42z"/>
			<path class="st1" d="M20,42c0,0-1.9,12.4,10,16.1C30,58.1,11,54.8,20,42z"/>
			<path class="st1" d="M20,42c0,0,5.7,11.2,17.5,7.1C37.6,49.2,20.2,57.7,20,42z"/>
		</g>
	</g>
	<polygon class="st1" points="12.8,65.1 98.4,48 98.4,25.2 12.8,42.2 	"/>
	<polygon class="st2" points="98.4,48 12.8,65.1 12.8,42.2 98.4,25.2 	"/>
	<g>
		<path class="st3" d="M21.2,50.3l-2.3,0.4l-0.2-0.9c-0.1-0.4-0.1-0.6-0.2-0.7C18.5,49,18.3,49,18.2,49c-0.1,0-0.2,0.1-0.3,0.3
			c-0.1,0.2-0.1,0.4,0,0.7c0.1,0.4,0.2,0.7,0.3,0.8c0.1,0.2,0.4,0.4,0.9,0.5c1.2,0.5,2.1,1,2.4,1.5c0.4,0.4,0.7,1.2,0.9,2.3
			c0.2,0.8,0.2,1.4,0.1,1.8c-0.1,0.4-0.3,0.8-0.7,1.1c-0.4,0.4-0.9,0.5-1.5,0.7c-0.7,0.1-1.2,0.1-1.8-0.1c-0.5-0.2-0.9-0.5-1.2-0.9
			c-0.2-0.4-0.4-1-0.6-1.9l-0.1-0.7l2.3-0.4l0.2,1.3c0.1,0.4,0.2,0.7,0.2,0.8c0.1,0.1,0.2,0.1,0.4,0.1c0.2-0.1,0.2-0.1,0.3-0.3
			c0.1-0.2,0.1-0.4,0-0.7c-0.1-0.7-0.3-1.1-0.5-1.2c-0.2-0.2-0.7-0.4-1.3-0.8c-0.7-0.4-1.2-0.6-1.4-0.8s-0.5-0.4-0.7-0.8
			c-0.2-0.4-0.4-0.9-0.5-1.4c-0.2-0.9-0.2-1.5-0.1-1.9c0.1-0.4,0.4-0.8,0.7-1.1c0.4-0.3,0.9-0.5,1.4-0.6c0.6-0.1,1.2-0.1,1.7,0.1
			c0.5,0.2,0.9,0.4,1.1,0.7c0.2,0.4,0.4,1,0.6,1.8L21.2,50.3z"/>
		<path class="st3" d="M28.4,52.2c0.2,1.1,0.4,1.9,0.4,2.4c0.1,0.5,0,0.9-0.2,1.3c-0.2,0.4-0.4,0.8-0.8,1.1
			c-0.4,0.3-0.8,0.5-1.3,0.6c-0.5,0.1-1,0.1-1.4,0c-0.4-0.1-0.8-0.4-1.2-0.7c-0.3-0.4-0.5-0.7-0.7-1.2c-0.1-0.4-0.3-1.2-0.5-2.4
			l-0.4-2C22.1,50.3,22,49.5,22,49c-0.1-0.5,0-0.9,0.2-1.3c0.2-0.4,0.4-0.8,0.8-1.1c0.4-0.3,0.8-0.5,1.3-0.6c0.5-0.1,1-0.1,1.4,0
			c0.4,0.1,0.8,0.4,1.2,0.7c0.3,0.4,0.5,0.7,0.7,1.2c0.1,0.4,0.3,1.2,0.5,2.4L28.4,52.2z M25.3,49c-0.1-0.5-0.2-0.9-0.2-1
			c-0.1-0.1-0.2-0.2-0.4-0.2c-0.1,0-0.2,0.1-0.2,0.2c-0.1,0.1,0,0.5,0.1,1l1,5.2c0.1,0.7,0.2,1,0.3,1.2c0.1,0.1,0.2,0.2,0.4,0.2
			c0.2-0.1,0.2-0.1,0.2-0.3c0-0.2-0.1-0.6-0.2-1.3L25.3,49z"/>
		<path class="st3" d="M33.9,47.9l-2.3,0.4l-0.2-0.9c-0.1-0.4-0.1-0.6-0.2-0.7c-0.1-0.1-0.2-0.1-0.3-0.1c-0.1,0-0.2,0.1-0.3,0.3
			c-0.1,0.2-0.1,0.4,0,0.7c0.1,0.4,0.2,0.7,0.3,0.8c0.1,0.2,0.4,0.4,0.9,0.5c1.2,0.5,2.1,1,2.4,1.5c0.4,0.4,0.7,1.2,0.9,2.3
			c0.2,0.8,0.2,1.4,0.1,1.8c-0.1,0.4-0.3,0.8-0.7,1.1c-0.4,0.4-0.9,0.5-1.5,0.7c-0.7,0.1-1.2,0.1-1.8-0.1c-0.5-0.2-0.9-0.5-1.2-0.9
			c-0.2-0.4-0.4-1-0.6-1.9l-0.2-0.6l2.3-0.4l0.2,1.3c0.1,0.4,0.2,0.7,0.2,0.8c0.1,0.1,0.2,0.1,0.4,0.1c0.2-0.1,0.2-0.1,0.3-0.3
			c0.1-0.2,0.1-0.4,0-0.7c-0.1-0.7-0.3-1.1-0.5-1.2c-0.2-0.2-0.7-0.4-1.3-0.8c-0.7-0.4-1.2-0.6-1.4-0.8c-0.2-0.2-0.5-0.4-0.7-0.8
			c-0.2-0.4-0.4-0.9-0.5-1.4c-0.2-0.9-0.2-1.5-0.1-1.9c0.1-0.4,0.4-0.8,0.7-1.1c0.4-0.3,0.9-0.5,1.4-0.6c0.6-0.1,1.2-0.1,1.7,0.1
			c0.5,0.2,0.9,0.4,1.1,0.7c0.2,0.4,0.4,1,0.6,1.8L33.9,47.9z"/>
		<path class="st3" d="M39.5,43.3L39,50.7l0.8,4l-2.3,0.4l-0.8-4l-3.1-6.8l2.3-0.4c0.8,2.1,1.3,3.5,1.5,4.3
			c-0.1-1.2-0.1-2.7-0.2-4.5L39.5,43.3z"/>
		<path class="st3" d="M43.5,42.5l3.5,10.8l-2.5,0.5L44,51.9L43.2,52l0.2,2l-2.5,0.5L40,43.2L43.5,42.5z M43.7,49.9
			c-0.4-1.2-0.8-2.7-1.3-4.6c0.2,2.2,0.3,3.8,0.4,4.7L43.7,49.9z"/>
		<path class="st3" d="M47.9,41.7l1.7,8.9l1.5-0.3l0.4,2.2l-4,0.8l-2.1-11.1L47.9,41.7z"/>
		<path class="st3" d="M52,40.9l2.5-0.5c0.7-0.1,1.2-0.2,1.6-0.1c0.4,0.1,0.7,0.2,0.9,0.4c0.2,0.2,0.4,0.4,0.5,0.8
			c0.1,0.3,0.2,0.9,0.4,1.5l0.2,1c0.1,0.7,0.2,1.2,0.1,1.6c-0.1,0.4-0.2,0.7-0.5,0.9c-0.3,0.2-0.7,0.4-1.3,0.5L55.7,47l0.9,4.4
			l-2.4,0.5L52,40.9z M54.9,42.3l0.5,2.8c0.1,0,0.1,0,0.2,0C55.8,45,56,45,56,44.8c0.1-0.1,0.1-0.4,0-0.9L55.8,43
			c-0.1-0.4-0.2-0.6-0.3-0.7C55.4,42.2,55.2,42.2,54.9,42.3z"/>
		<path class="st3" d="M64.9,45.1c0.2,1.1,0.4,1.9,0.4,2.4c0.1,0.5,0,0.9-0.2,1.3c-0.2,0.4-0.4,0.8-0.8,1.1
			c-0.4,0.3-0.8,0.5-1.3,0.6c-0.5,0.1-1,0.1-1.4,0c-0.4-0.1-0.8-0.4-1.2-0.7c-0.3-0.4-0.5-0.7-0.7-1.2s-0.3-1.2-0.5-2.4l-0.4-1.9
			c-0.2-1.1-0.4-1.9-0.4-2.4c-0.1-0.5,0-0.9,0.2-1.3c0.2-0.4,0.4-0.8,0.8-1.1c0.4-0.3,0.8-0.5,1.3-0.6c0.5-0.1,1-0.1,1.4,0
			c0.4,0.1,0.8,0.4,1.2,0.7c0.3,0.4,0.5,0.7,0.7,1.2c0.1,0.4,0.3,1.2,0.5,2.4L64.9,45.1z M61.8,41.9c-0.1-0.5-0.2-0.9-0.2-1
			c-0.1-0.1-0.2-0.2-0.4-0.2c-0.1,0-0.2,0.1-0.2,0.2c-0.1,0.1,0,0.5,0.1,1l1,5.2c0.1,0.7,0.2,1,0.3,1.2c0.1,0.1,0.2,0.2,0.4,0.2
			c0.2-0.1,0.2-0.1,0.2-0.3s-0.1-0.6-0.2-1.3L61.8,41.9z"/>
		<path class="st3" d="M67,38l1.7,8.9l1.5-0.3l0.4,2.2l-4,0.8l-2.1-11.1L67,38z"/>
		<path class="st3" d="M71.6,37.1l2.1,11.1l-2.4,0.5l-2.1-11.1L71.6,37.1z M70.7,35l0.4,1.8l-1.5,0.3l-0.4-1.8L70.7,35z"/>
		<path class="st3" d="M77.5,35.9l0.4,2.2l-1.5,0.3l1.7,8.9l-2.4,0.5l-1.7-8.9l-1.5,0.3L72.2,37L77.5,35.9z"/>
		<path class="st3" d="M80.5,35.3l2.1,11.1l-2.4,0.5l-2.1-11.1L80.5,35.3z M79.7,33.3L80,35l-1.5,0.3l-0.4-1.8L79.7,33.3z"/>
		<path class="st3" d="M87.4,34L87,39.3l2.7,5.8l-2.6,0.5L85.3,41l0.9,4.7l-2.4,0.5l-2.1-11.1l2.4-0.5l0.9,4.3l0.2-4.5L87.4,34z"/>
		<path class="st3" d="M92.4,33l3.5,10.8l-2.5,0.5l-0.5-1.9L92,42.6l0.2,2l-2.6,0.5l-0.9-11.3L92.4,33z M92.5,40.4
			c-0.4-1.2-0.8-2.7-1.3-4.6c0.2,2.2,0.3,3.8,0.4,4.7L92.5,40.4z"/>
	</g>
	<g>
		<path class="st1" d="M20.6,75.7v0.1c0.2-0.1,0.3,0,0.5,0.1s0.2,0.2,0.3,0.5c0.1,0.2,0,0.5-0.1,0.7c-0.1,0.2-0.4,0.4-0.6,0.4
			c-0.5,0.1-0.9-0.1-1.1-0.7l0.7-0.1c0.1,0.1,0.2,0.2,0.2,0.2c0.1,0,0.2-0.1,0.2-0.1c0.1-0.1,0.1-0.1,0-0.2c0-0.1-0.1-0.2-0.1-0.2
			c-0.1-0.1-0.2-0.1-0.3,0h-0.1v-0.5c-0.5,0.1-1-0.1-1.3-0.2c-0.4-0.2-0.6-0.5-0.8-0.9c-0.2-0.4-0.3-0.9-0.5-1.7l-0.5-2.5
			c-0.1-0.6-0.2-1.1-0.2-1.4c0-0.3,0-0.7,0.1-1c0.1-0.3,0.3-0.6,0.6-0.9s0.6-0.4,1-0.5c0.5-0.1,1-0.1,1.5,0.1
			c0.4,0.2,0.7,0.4,0.9,0.8c0.2,0.4,0.4,0.9,0.5,1.8l0.2,0.8l-1.9,0.4l-0.2-1.5c-0.1-0.4-0.2-0.7-0.2-0.8c-0.1-0.1-0.2-0.1-0.3-0.1
			c-0.2,0.1-0.2,0.1-0.2,0.2c0,0.1,0,0.4,0.1,0.9l0.9,4.1c0.1,0.4,0.2,0.7,0.2,0.8c0.1,0.1,0.2,0.2,0.3,0.1c0.1,0,0.2-0.1,0.2-0.2
			c0-0.1,0-0.4-0.1-0.9L20,72l1.9-0.4L22,72c0.2,0.9,0.2,1.5,0.2,1.8s-0.1,0.7-0.4,1.2C21.6,75.3,21.1,75.5,20.6,75.7z"/>
		<path class="st1" d="M24.9,65.6l2.9,8.4l-1.9,0.4l-0.4-1.5L24.7,73l0.2,1.6L23,75l-0.8-8.8L24.9,65.6z M25,71.4
			c-0.3-1-0.7-2.1-1-3.6c0.1,1.7,0.2,2.9,0.4,3.7L25,71.4z"/>
		<path class="st1" d="M28.2,64.9l1.4,6.9l1.2-0.2l0.4,1.8l-3,0.6l-1.8-8.6L28.2,64.9z"/>
		<path class="st1" d="M31.7,64.2l1.8,8.6l-1.9,0.4l-1.8-8.6L31.7,64.2z"/>
		<path class="st1" d="M36.5,72.4v0.1c0.2-0.1,0.3,0,0.5,0.1c0.2,0.1,0.2,0.2,0.3,0.5s0,0.5-0.1,0.7c-0.1,0.2-0.4,0.4-0.6,0.4
			c-0.5,0.1-0.9-0.1-1.1-0.7l0.7-0.1c0.1,0.1,0.2,0.2,0.3,0.2c0.2-0.1,0.2-0.2,0.2-0.4c-0.1-0.2-0.2-0.3-0.4-0.3h-0.1L36,72.5
			c-0.5,0-0.9-0.1-1.2-0.2c-0.3-0.2-0.5-0.5-0.7-0.8c-0.1-0.3-0.2-0.7-0.4-1.3l-0.1-0.5l1.8-0.4l0.2,1c0.1,0.3,0.1,0.5,0.2,0.6
			C35.9,71,36,71,36.1,71c0.2-0.1,0.3-0.3,0.2-0.8c-0.1-0.5-0.2-0.9-0.4-1c-0.1-0.1-0.5-0.3-1-0.6c-0.5-0.2-0.9-0.5-1.1-0.6
			c-0.2-0.1-0.4-0.4-0.5-0.6c-0.2-0.3-0.3-0.7-0.4-1.1c-0.1-0.7-0.2-1.2-0.1-1.5c0.1-0.4,0.2-0.6,0.5-0.9c0.3-0.2,0.7-0.4,1.1-0.5
			c0.5-0.1,0.9-0.1,1.3,0c0.4,0.1,0.7,0.3,0.9,0.5s0.3,0.7,0.5,1.4l0.1,0.4l-1.8,0.4l-0.1-0.7c-0.1-0.3-0.1-0.5-0.2-0.5
			c-0.1-0.1-0.1-0.1-0.2-0.1c-0.2,0.1-0.3,0.3-0.2,0.7c0.1,0.3,0.1,0.5,0.2,0.6c0.1,0.1,0.3,0.2,0.7,0.4c1,0.4,1.6,0.8,1.9,1.2
			c0.3,0.3,0.5,0.9,0.7,1.8c0.1,0.6,0.2,1,0.1,1.3s-0.2,0.6-0.5,0.9C37.3,72.1,37,72.3,36.5,72.4z"/>
		<path class="st1" d="M43.2,61.8l1.8,8.6l-1.6,0.4L42.1,65l0.5,6l-1.2,0.2l-1.9-5.5l1.2,5.7l-1.7,0.4L37.3,63l2.5-0.5
			c0.2,0.5,0.4,1.1,0.6,1.8l0.7,2.1l-0.4-4.1L43.2,61.8z"/>
		<path class="st1" d="M47.3,61l2.9,8.4l-1.9,0.4l-0.4-1.5l-0.7,0.1l0.2,1.6l-1.9,0.4l-0.8-8.8L47.3,61z M47.4,66.8
			c-0.3-1-0.7-2.1-1-3.6c0.1,1.7,0.2,2.9,0.4,3.7L47.4,66.8z"/>
		<path class="st1" d="M50.6,60.3l1.4,6.9l1.2-0.2l0.4,1.7l-3,0.6l-1.8-8.6L50.6,60.3z"/>
		<path class="st1" d="M55.8,59.3l2.9,8.4l-1.9,0.4l-0.4-1.5l-0.7,0.1l0.2,1.6l-1.9,0.4L53,59.8L55.8,59.3z M55.9,65
			c-0.3-1-0.7-2.1-1-3.6c0.1,1.7,0.2,2.9,0.4,3.7L55.9,65z"/>
		<path class="st1" d="M57.2,59l1.3-0.3c0.9-0.2,1.5-0.2,1.8-0.2c0.4,0,0.6,0.2,0.9,0.5c0.3,0.3,0.5,0.8,0.6,1.5
			c0.1,0.7,0.2,1.2,0.1,1.4c-0.1,0.2-0.4,0.4-0.7,0.6c0.4,0.1,0.7,0.1,0.9,0.3c0.2,0.2,0.3,0.3,0.4,0.5c0.1,0.1,0.2,0.5,0.3,1.3
			l0.5,2.3l-1.8,0.4l-0.6-2.9c-0.1-0.5-0.2-0.7-0.2-0.9c-0.1-0.1-0.2-0.1-0.5-0.1l0.8,3.9L59,67.6L57.2,59z M59.4,60.1l0.4,1.9
			c0.2-0.1,0.4-0.1,0.4-0.2c0.1-0.1,0.1-0.3,0-0.7L60,60.6c-0.1-0.2-0.1-0.4-0.2-0.5C59.8,60,59.6,60,59.4,60.1z"/>
		<path class="st1" d="M64.1,57.5l1.8,8.6L64,66.5l-1.8-8.6L64.1,57.5z"/>
		<path class="st1" d="M66.5,57l1.4-0.3c0.9-0.2,1.6-0.2,1.9-0.2c0.4,0.1,0.6,0.1,0.9,0.4c0.2,0.2,0.4,0.4,0.5,0.7
			c0.1,0.2,0.2,0.8,0.4,1.6l0.6,3c0.2,0.8,0.2,1.3,0.2,1.6c0,0.2-0.1,0.5-0.2,0.7c-0.1,0.2-0.3,0.3-0.5,0.4c-0.2,0.1-0.5,0.2-1,0.3
			l-2.4,0.5L66.5,57z M68.8,58.1l1.2,5.7c0.3-0.1,0.4-0.2,0.5-0.3c0.1-0.1,0-0.5-0.1-1.1L69.6,59c-0.1-0.4-0.1-0.6-0.2-0.7
			s-0.1-0.2-0.2-0.2C69.1,58.1,68.9,58.1,68.8,58.1z"/>
		<path class="st1" d="M71.6,56l3.2-0.7l0.4,1.7l-1.3,0.2l0.4,1.6l1.2-0.2l0.4,1.6l-1.2,0.2l0.4,1.9l1.4-0.3l0.4,1.7l-3.3,0.7
			L71.6,56z"/>
		<path class="st1" d="M75.5,55.2l1.3-0.3c0.9-0.2,1.5-0.2,1.8-0.2c0.4,0,0.6,0.2,0.9,0.5c0.2,0.3,0.5,0.8,0.6,1.5
			c0.1,0.7,0.2,1.2,0.1,1.4c-0.1,0.2-0.4,0.4-0.7,0.6c0.4,0.1,0.7,0.1,0.9,0.3c0.2,0.2,0.3,0.3,0.4,0.5c0.1,0.1,0.2,0.5,0.3,1.3
			l0.5,2.3l-1.8,0.4l-0.6-2.9C79,60,79,59.8,78.9,59.6c-0.1-0.1-0.2-0.1-0.5-0.1l0.8,3.9l-1.9,0.4L75.5,55.2z M77.7,56.2l0.4,1.9
			c0.2-0.1,0.4-0.1,0.4-0.2c0.1-0.1,0.1-0.3,0-0.7l-0.1-0.5c-0.1-0.2-0.1-0.4-0.2-0.5C78.1,56.2,78,56.2,77.7,56.2z"/>
		<path class="st1" d="M85.6,56.4l-1.9,0.4L83.5,56c-0.1-0.5-0.2-0.8-0.2-0.9c-0.1-0.1-0.2-0.2-0.3-0.1c-0.1,0-0.2,0.1-0.2,0.2
			c0,0.1,0,0.4,0.1,0.9l0.9,4.1c0.1,0.4,0.2,0.6,0.2,0.7C84,61,84.2,61,84.3,61c0.1,0,0.2-0.1,0.2-0.2c0-0.1,0-0.4-0.1-0.9l-0.2-1
			l-0.4,0.1l-0.2-1.3l2.3-0.5l1,4.6L85.6,62l-0.3-0.6c-0.1,0.3-0.2,0.5-0.4,0.7c-0.2,0.2-0.4,0.3-0.7,0.4s-0.7,0.1-1-0.1
			c-0.3-0.1-0.5-0.3-0.8-0.5c-0.2-0.2-0.4-0.5-0.4-0.8c-0.1-0.3-0.2-0.7-0.3-1.3l-0.5-2.6c-0.2-0.9-0.2-1.5-0.2-1.8
			c0-0.4,0.1-0.8,0.4-1.2c0.3-0.4,0.7-0.6,1.3-0.7c0.5-0.1,1-0.1,1.5,0.1c0.4,0.2,0.7,0.5,0.9,0.8c0.2,0.4,0.4,0.9,0.5,1.6
			L85.6,56.4z"/>
		<path class="st1" d="M87.6,52.7l1.8,8.6l-1.9,0.4l-1.8-8.6L87.6,52.7z M86.8,51.1l0.3,1.4L86,52.8l-0.3-1.4L86.8,51.1z"/>
		<path class="st1" d="M92.9,54.3l-1.8,0.4L91,54c-0.1-0.3-0.1-0.5-0.2-0.5c-0.1-0.1-0.1-0.1-0.2-0.1c-0.1,0-0.2,0.1-0.2,0.2
			c-0.1,0.1-0.1,0.3,0,0.5c0.1,0.3,0.1,0.5,0.2,0.6c0.1,0.1,0.3,0.2,0.7,0.4c1,0.4,1.6,0.8,1.9,1.2c0.3,0.3,0.5,0.9,0.7,1.8
			c0.1,0.6,0.2,1.1,0.1,1.4c-0.1,0.3-0.2,0.6-0.5,0.9c-0.3,0.2-0.7,0.4-1.2,0.5c-0.5,0.1-1,0.1-1.4-0.1c-0.4-0.2-0.7-0.4-0.9-0.7
			c-0.2-0.3-0.4-0.8-0.5-1.5l-0.1-0.5l1.8-0.4l0.2,1c0.1,0.3,0.1,0.5,0.2,0.6c0.1,0.1,0.2,0.1,0.3,0.1c0.1,0,0.2-0.1,0.2-0.2
			c0.1-0.1,0.1-0.3,0-0.5c-0.1-0.5-0.2-0.9-0.4-1c-0.2-0.1-0.5-0.3-1-0.6c-0.5-0.2-0.9-0.5-1.1-0.6s-0.4-0.4-0.5-0.6
			c-0.2-0.3-0.3-0.7-0.4-1.1c-0.1-0.7-0.2-1.2-0.1-1.5c0.1-0.4,0.2-0.6,0.5-0.9c0.3-0.2,0.7-0.4,1.1-0.5c0.5-0.1,0.9-0.1,1.3,0
			c0.4,0.1,0.7,0.3,0.9,0.5c0.2,0.2,0.3,0.7,0.5,1.4L92.9,54.3z"/>
		<path class="st1" d="M95.1,51.2l1.8,8.6l-1.9,0.4l-1.8-8.6L95.1,51.2z M94.3,49.6l0.3,1.4l-1.2,0.2l-0.3-1.4L94.3,49.6z"/>
	</g>
</g>
</svg>
