<svg height="64" viewBox="0 0 64 64" width="64" xmlns="http://www.w3.org/2000/svg"><path d="M29.315 27.468c-.129-.017-.256-.047-.379-.07.069-.417.14-.779.188-1.144.23-1.774 0-3.475-1.088-4.929-2.023-2.706-4.815-3.782-7.974-3.976-3.158.193-5.95 1.27-7.974 3.976C11 22.778 10.771 24.479 11 26.253c.048.366.119.728.188 1.144-.124.024-.251.053-.379.07-.85.12-1.241.489-1.241 1.347.001 1.146.235 2.258.782 3.281.377.706 1.025.949 1.812.97.063.272.107.54.187.795.947 3.052 3.881 7.055 7.388 7.16.109.003.218.003.325 0 .108.003.217.003.325 0 3.507-.105 6.441-4.108 7.388-7.16.08-.256.124-.524.187-.795.787-.022 1.435-.265 1.812-.97.547-1.023.781-2.135.782-3.281 0-.857-.391-1.226-1.241-1.346zm8.958 22.376c-.574-1.27-1.756-2.222-2.917-3.086-1.324-.993-2.803-1.796-4.079-2.451l-.338-.176c-1.351-.702-2.742-1.425-4.241-1.675-.034-.007-.074-.007-.108-.014-.162.176-3.647 10.582-3.748 10.582-.108-.284-.986-5.106-1.04-5.578l-.02-.203v-.02a.38.38 0 01.013-.088l.007-.041c.027-.061.054-.128.095-.182l.034-.047c.26-.403.533-.819.794-1.236a.425.425 0 00.036-.324l-.27-.77-.101-.284c-.108-.304-.216-.608-.317-.912-.034-.095-.085-.098-.196-.149-.326-.15-3.391-.149-3.633 0-.104.064-.162.054-.196.149-.101.304-.209.608-.317.912l-.101.284-.27.77a.425.425 0 00.036.324c.261.416.534.832.794 1.236l.034.047c.041.054.068.122.095.182l.007.041c.007.02.013.061.013.088v.02l-.02.203c-.054.473-.932 5.295-1.04 5.578-.101 0-3.586-10.407-3.748-10.582-.034.007-.074.007-.108.014-1.499.25-2.89.972-4.241 1.675l-.338.176c-1.276.655-2.755 1.459-4.079 2.451-1.162.864-2.343 1.817-2.917 3.086-.507 1.121-.459 2.445-.419 3.721l.014.398c.007.203.013.473.013.729-.007.716.534 1.04 1.06 1.357.074.041.149.081.216.128.662.412 1.364.837 2.1 1.168 2.357 1.047 5.072 1.783 8.529 2.33 1.175.182 2.269.317 3.363.405 1.087.095 2.121.135 3.167.135h.338c1.047 0 2.08-.041 3.167-.135a45.723 45.723 0 003.363-.405c3.458-.547 6.173-1.283 8.529-2.33.736-.331 1.438-.756 2.1-1.168.068-.047.142-.088.216-.128.527-.317 1.067-.642 1.06-1.357 0-.257.007-.527.013-.729l.014-.398c.041-1.276.089-2.599-.418-3.721z" fill="#414143"/><path d="M62.56 9.686a6.017 6.017 0 00-2.403-4.626 6.168 6.168 0 00-3.737-1.255c-6.053 0-10.493.065-16.539-.021-3.062-.05-6.132 2.352-6.154 6.046v24.944c0 .38.459.574.732.308 1.183-1.183 3.521-3.507 4.82-4.791l.129-.129a.922.922 0 01.595-.244c2.689-.007 5.379-.014 8.068-.014 2.625 0 3.909.344 6.462-.402 2.216-.645 4.224-2.08 5.644-3.894a11.754 11.754 0 001.614-2.761c.898-2.181.841-10.895.769-13.161zM48.128 26.5c-1.229-.024-2.323-1.151-2.3-2.368.023-1.233 1.146-2.323 2.368-2.3 1.229.024 2.324 1.15 2.3 2.368-.023 1.231-1.149 2.324-2.368 2.3zm2.567-16.13a655.662 655.662 0 01-.813 8.153c-.162 1.534-1.108 2.145-2.548 1.56-.357-.145-.719-.699-.772-1.105-.297-2.283-.503-4.577-.734-6.869-.099-.982-.169-1.967-.277-2.949-.127-1.15.222-1.559 1.395-1.577.395-.006.791-.001 1.186-.001 2.807-.004 2.821-.002 2.563 2.788z" fill="#1D75B9"/></svg>