<svg xmlns="http://www.w3.org/2000/svg" width="1024" height="512" viewBox="0 0 1024 512"><path d="M251.2 7.3s0 .4 0 0c26.6 1.5 48 9.4 53.6 31.8 3.4 12.7-.4 25.8-4.9 35.2-4.9 10.1-10.1 18-16.9 25.8-13.1 15.4-28.5 27.7-46.1 39-17.2 11.2-36 21-56.2 28.8-9.7 3.7-20.6 7.5-32.6 10.1-11.2 2.6-25.5 4.5-37.8 1.5-11.6-2.6-20.6-8.6-22.5-20.2-1.9-12.7 4.5-23.2 10.1-31.5 11.6-16.9 27.7-29.2 46.1-39 18.4-10.1 39.3-18.4 67.4-17.2-22.9 2.6-38.2 9.4-53.6 19.1-13.1 8.6-28.8 21.4-33.7 39-3.4 12 2.2 20.2 10.5 24 8.2 3.7 21.4 4.1 31.8 3 21.7-1.9 39.7-9.7 54.7-18C244 126 264.2 109.1 278 86.3c4.5-7.5 8.6-16.1 10.9-25.5 5.2-25.5-7.1-39.3-25.5-45s-45.3-2.6-64.1 2.2c-37.8 10.1-68.2 28.5-95.2 50.2C91.2 78.9 79.2 91.3 68 104.7c-10.9 13.5-20.6 28.5-27 45.3-3 9.4-5.6 19.9-4.1 31.1 3.7 30 35.2 39 70.8 37.1 45-2.6 79-18 110.1-35.2-28.1 17.2-62.2 33.7-101.9 39.7-44.6 7.5-91.8-.7-94.8-42.3v-7.5c3-28.1 16.5-48.7 30-65.9 14.6-18.7 30.7-33.3 49.1-46.8 18-13.9 38.6-25.5 61.1-34.8s48.3-16.5 77.5-18h12.4m11.6 52c-2.2 5.2-5.6 10.9-8.2 16.5 7.1.7 15 .7 22.5 1.5-9 3.4-18.4 6.4-27.7 9.4-3 6-6.4 12-9.4 18-3-3.7-5.2-8.2-8.2-12l-27 9c7.5-5.2 15-10.9 22.5-16.1-2.2-3.7-4.9-7.5-7.1-11.2 5.2.4 10.5.7 15.7.7 1.9 0 3.7.7 5.2.4 1.5-.4 4.1-2.6 5.6-3.7 5.2-4.2 10.8-8.7 16.1-12.5m209.6 87.3s0 .2 0 0c16.4.9 29.6 5.8 33.1 19.7 2.1 7.9-.2 16-3 21.8-3 6.3-6.3 11.1-10.4 16-8.1 9.5-17.6 17.1-28.5 24.1-10.7 6.9-22.2 13-34.7 17.8-6 2.3-12.7 4.6-20.1 6.3-6.9 1.6-15.7 2.8-23.4.9-7.2-1.6-12.7-5.3-13.9-12.5-1.2-7.9 2.8-14.4 6.3-19.5 7.2-10.4 17.1-18.1 28.5-24.1 11.3-6.3 24.3-11.3 41.7-10.7-14.1 1.6-23.6 5.8-33.1 11.8-8.1 5.3-17.8 13.2-20.8 24.1-2.1 7.4 1.4 12.5 6.5 14.8 5.1 2.3 13.2 2.5 19.7 1.9 13.4-1.2 24.6-6 33.8-11.1 14.1-7.9 26.6-18.3 35.2-32.4 2.8-4.6 5.3-10 6.7-15.7 3.2-15.7-4.4-24.3-15.7-27.8-11.3-3.5-28-1.6-39.6 1.4-23.4 6.3-42.2 17.6-58.8 31-8.1 6.5-15.5 14.1-22.5 22.5-6.7 8.3-12.7 17.6-16.7 28-1.9 5.8-3.5 12.3-2.5 19.2 2.3 18.5 21.8 24.1 43.8 22.9 27.8-1.6 48.9-11.1 68.1-21.8-17.4 10.7-38.4 20.8-63 24.6-27.6 4.6-56.7-.5-58.6-26.2v-4.6c1.9-17.4 10.2-30.1 18.5-40.8 9-11.6 19-20.6 30.3-29 11.1-8.6 23.9-15.7 37.8-21.5C431 152 447 147.6 465 146.7h7.4m7.2 32.2c-1.4 3.2-3.5 6.7-5.1 10.2 4.4.5 9.3.5 13.9.9-5.6 2.1-11.3 3.9-17.1 5.8-1.9 3.7-3.9 7.4-5.8 11.1-1.9-2.3-3.2-5.1-5.1-7.4l-16.7 5.6c4.6-3.2 9.3-6.7 13.9-10-1.4-2.3-3-4.6-4.4-6.9 3.2.2 6.5.5 9.7.5 1.2 0 2.3.5 3.2.2.9-.2 2.5-1.6 3.5-2.3 3.3-2.6 6.7-5.4 10-7.7" opacity=".33" fill="none" stroke="#fff" stroke-width=".283" stroke-miterlimit="10"/><path d="M351.5 229.4s0 .1 0 0c12.8.7 23.1 4.5 25.8 15.3 1.6 6.1-.2 12.4-2.3 16.9-2.3 4.9-4.9 8.6-8.1 12.4-6.3 7.4-13.7 13.3-22.2 18.7-8.3 5.4-17.3 10.1-27 13.9-4.7 1.8-9.9 3.6-15.7 4.9-5.4 1.3-12.3 2.2-18.2.7-5.6-1.3-9.9-4.1-10.8-9.7-.9-6.1 2.2-11.2 4.9-15.1 5.6-8.1 13.3-14.1 22.2-18.7 8.8-4.9 18.9-8.8 32.4-8.3-11 1.3-18.4 4.5-25.8 9.2-6.3 4.1-13.9 10.3-16.2 18.7-1.6 5.8 1.1 9.7 5 11.5 4 1.8 10.3 2 15.3 1.4 10.5-.9 19.1-4.7 26.3-8.6 11-6.1 20.7-14.2 27.4-25.2 2.2-3.6 4.1-7.7 5.2-12.3 2.5-12.3-3.4-18.9-12.3-21.6s-21.8-1.3-30.8 1.1c-18.2 4.9-32.8 13.7-45.8 24.1-6.3 5-12.1 11-17.5 17.5-5.2 6.5-9.9 13.7-13 21.8-1.4 4.5-2.7 9.6-2 15 1.8 14.4 16.9 18.7 34.1 17.8 21.6-1.3 38-8.6 53-16.9-13.5 8.3-29.9 16.2-49 19.1-21.4 3.6-44.2-.4-45.6-20.4V309c1.4-13.5 7.9-23.4 14.4-31.7 7-9 14.8-16 23.6-22.5 8.6-6.7 18.6-12.3 29.4-16.8 10.8-4.5 23.2-7.9 37.3-8.6h6m5.6 25c-1.1 2.5-2.7 5.2-4 7.9 3.4.4 7.2.4 10.8.7-4.3 1.6-8.8 3.1-13.3 4.5-1.4 2.9-3.1 5.8-4.5 8.6-1.4-1.8-2.5-4-4-5.8l-13 4.3c3.6-2.5 7.2-5.2 10.8-7.7-1.1-1.8-2.3-3.6-3.4-5.4 2.5.2 5 .4 7.6.4.9 0 1.8.4 2.5.2s2-1.3 2.7-1.8c2.6-1.9 5.3-4.1 7.8-5.9" opacity=".33" fill="none" stroke="#fff" stroke-width=".283" stroke-miterlimit="10"/><path d="M351.1 243.1s0 .4 0 0c26.6 1.5 48 9.4 53.6 31.8 3.4 12.7-.4 25.8-4.9 35.2-4.9 10.1-10.1 18-16.9 25.8-13.1 15.4-28.5 27.7-46.1 39-17.2 11.2-36 21-56.2 28.8-9.7 3.7-20.6 7.5-32.6 10.1-11.2 2.6-25.5 4.5-37.8 1.5-11.6-2.6-20.6-8.6-22.5-20.2-1.9-12.7 4.5-23.2 10.1-31.5 11.6-16.9 27.7-29.2 46.1-39 18.4-10.1 39.3-18.4 67.4-17.2-22.9 2.6-38.2 9.4-53.6 19.1-13.1 8.6-28.8 21.4-33.7 39-3.4 12 2.2 20.2 10.5 24 8.2 3.7 21.4 4.1 31.8 3 21.7-1.9 39.7-9.7 54.7-18 22.9-12.7 43.1-29.6 56.9-52.4 4.5-7.5 8.6-16.1 10.9-25.5 5.2-25.5-7.1-39.3-25.5-45s-45.3-2.6-64.1 2.2C261.4 263.9 231 282.3 204 304c-13.1 10.5-25.1 22.9-36.3 36.3-10.9 13.5-20.6 28.5-27 45.3-3 9.4-5.6 19.9-4.1 31.1 3.7 30 35.2 39 70.8 37.1 45-2.6 79-18 110.1-35.2-28.1 17.2-62.2 33.7-101.9 39.7-44.6 7.5-91.8-.7-94.8-42.3v-7.5c3-28.1 16.5-48.7 30-65.9 14.6-18.7 30.7-33.3 49.1-46.8 18-13.9 38.6-25.5 61.1-34.8 22.5-9.4 48.3-16.5 77.5-18h12.6m11.6 52.2c-2.2 5.2-5.6 10.9-8.2 16.5 7.1.7 15 .7 22.5 1.5-9 3.4-18.4 6.4-27.7 9.4-3 6-6.4 12-9.4 18-3-3.7-5.2-8.2-8.2-12l-27 9c7.5-5.2 15-10.9 22.5-16.1-2.2-3.7-4.9-7.5-7.1-11.2 5.2.4 10.5.7 15.7.7 1.9 0 3.7.7 5.2.4 1.5-.4 4.1-2.6 5.6-3.7 5.3-4.3 10.9-8.8 16.1-12.5M619.5 191s0 .4 0 0c26.6 1.5 48 9.4 53.6 31.8 3.4 12.7-.4 25.8-4.9 35.2-4.9 10.1-10.1 18-16.9 25.8-13.1 15.4-28.5 27.7-46.1 39-17.2 11.2-36 21-56.2 28.8-9.7 3.7-20.6 7.5-32.6 10.1-11.2 2.6-25.5 4.5-37.8 1.5-11.6-2.6-20.6-8.6-22.5-20.2-1.9-12.7 4.5-23.2 10.1-31.5 11.6-16.9 27.7-29.2 46.1-39 18.4-10.1 39.3-18.4 67.4-17.2-22.9 2.6-38.2 9.4-53.6 19.1-13.1 8.6-28.8 21.4-33.7 39-3.4 12 2.2 20.2 10.5 24s21.4 4.1 31.8 3c21.7-1.9 39.7-9.7 54.7-18 22.9-12.7 43.1-29.6 56.9-52.4 4.5-7.5 8.6-16.1 10.9-25.5 5.2-25.5-7.1-39.3-25.5-45-18.4-5.6-45.3-2.6-64.1 2.2-37.8 10.1-68.2 28.5-95.2 50.2-13.1 10.5-25.1 22.9-36.3 36.3-10.9 13.5-20.6 28.5-27 45.3-3 9.4-5.6 19.9-4.1 31.1 3.7 30 35.2 39 70.8 37.1 45-2.6 79-18 110.1-35.2-28.1 17.2-62.2 33.7-101.9 39.7-44.6 7.5-91.8-.7-94.8-42.3v-7.5c3-28.1 16.5-48.7 30-65.9 14.6-18.7 30.7-33.3 49.1-46.8 18-13.9 38.6-25.5 61.1-34.8 22.5-9.4 48.3-16.5 77.5-18h12.6m11.7 52.2c-2.2 5.2-5.6 10.9-8.2 16.5 7.1.7 15 .7 22.5 1.5-9 3.4-18.4 6.4-27.7 9.4-3 6-6.4 12-9.4 18-3-3.7-5.2-8.2-8.2-12l-27 9c7.5-5.2 15-10.9 22.5-16.1-2.2-3.7-4.9-7.5-7.1-11.2 5.2.4 10.5.7 15.7.7 1.9 0 3.7.7 5.2.4 1.5-.4 4.1-2.6 5.6-3.7 5.2-4.3 10.8-8.8 16.1-12.5" opacity=".33" fill="none" stroke="#fff" stroke-width=".283" stroke-miterlimit="10"/><path d="M726.7 265.8s0 .3 0 0c26.6 1.5 48 9.4 53.6 31.8 3.4 12.7-.4 25.8-4.9 35.2-4.9 10.1-10.1 18-16.9 25.8-13.1 15.4-28.5 27.7-46.1 39-17.2 11.2-36 21-56.2 28.8-9.7 3.7-20.6 7.5-32.6 10.1-11.2 2.6-25.5 4.5-37.8 1.5-11.6-2.6-20.6-8.6-22.5-20.2-1.9-12.7 4.5-23.2 10.1-31.5 11.6-16.9 27.7-29.2 46.1-39 18.4-10.1 39.3-18.4 67.4-17.2-22.9 2.6-38.2 9.4-53.6 19.1-13.1 8.6-28.8 21.4-33.7 39-3.4 12 2.2 20.2 10.5 24 8.2 3.7 21.4 4.1 31.8 3 21.7-1.9 39.7-9.7 54.7-18 22.9-12.7 43.1-29.6 56.9-52.4 4.5-7.5 8.6-16.1 10.9-25.5 5.2-25.5-7.1-39.3-25.5-45s-45.3-2.6-64.1 2.2c-37.8 10.1-68.2 28.5-95.2 50.2-13.1 10.5-25.1 22.9-36.3 36.3-10.9 13.5-20.6 28.5-27 45.3-3 9.4-5.6 19.9-4.1 31.1 3.7 30 35.2 39 70.8 37.1 45-2.6 79-18 110.1-35.2C665 458.5 630.9 475 591.2 481c-44.6 7.5-91.8-.7-94.8-42.3v-7.5c3-28.1 16.5-48.7 30-65.9 14.6-18.7 30.7-33.3 49.1-46.8 18-13.9 38.6-25.5 61.1-34.8 22.5-9.4 48.3-16.5 77.5-18h12.6m11.7 52.1c-2.2 5.2-5.6 10.9-8.2 16.5 7.1.7 15 .7 22.5 1.5-9 3.4-18.4 6.4-27.7 9.4-3 6-6.4 12-9.4 18-3-3.7-5.2-8.2-8.2-12l-27 9c7.5-5.2 15-10.9 22.5-16.1-2.2-3.7-4.9-7.5-7.1-11.2 5.2.4 10.5.7 15.7.7 1.9 0 3.7.7 5.2.4 1.5-.4 4.1-2.6 5.6-3.7 5.2-4.2 10.8-8.7 16.1-12.5" opacity=".33" fill="none" stroke="#fff" stroke-width=".283" stroke-miterlimit="10"/><path d="M482.2 326.1s0 .4 0 0c26.6 1.5 48 9.4 53.6 31.8 3.4 12.7-.4 25.8-4.9 35.2-4.9 10.1-10.1 18-16.9 25.8-13.1 15.4-28.5 27.7-46.1 39-17.2 11.2-36 21-56.2 28.8-9.7 3.7-20.6 7.5-32.6 10.1-11.2 2.6-25.5 4.5-37.8 1.5-11.6-2.6-20.6-8.6-22.5-20.2-1.9-12.7 4.5-23.2 10.1-31.5 11.6-16.9 27.7-29.2 46.1-39 18.4-10.1 39.3-18.4 67.4-17.2-22.9 2.6-38.2 9.4-53.6 19.1-13.1 8.6-28.8 21.4-33.7 39-3.4 12 2.2 20.2 10.5 24s21.4 4.1 31.8 3c21.7-1.9 39.7-9.7 54.7-18 22.9-12.7 43.1-29.6 56.9-52.4 4.5-7.5 8.6-16.1 10.9-25.5 5.2-25.5-7.1-39.3-25.5-45-18.4-5.6-45.3-2.6-64.1 2.2-37.8 10.1-68.2 28.5-95.2 50.2-13.1 10.5-25.1 22.9-36.3 36.3-10.9 13.5-20.6 28.5-27 45.3-3 9.4-5.6 19.9-4.1 31.1 3.7 30 35.2 39 70.8 37.1 45-2.6 79-18 110.1-35.2-28.1 17.2-62.2 33.7-101.9 39.7-44.6 7.5-91.8-.7-94.8-42.3v-7.5c3-28.1 16.5-48.7 30-65.9 14.6-18.7 30.7-33.3 49.1-46.8 18-13.9 38.6-25.5 61.1-34.8 22.5-9.4 48.3-16.5 77.5-18h12.6m11.6 52.2c-2.2 5.2-5.6 10.9-8.2 16.5 7.1.7 15 .7 22.5 1.5-9 3.4-18.4 6.4-27.7 9.4-3 6-6.4 12-9.4 18-3-3.7-5.2-8.2-8.2-12l-27 9c7.5-5.2 15-10.9 22.5-16.1-2.2-3.7-4.9-7.5-7.1-11.2 5.2.4 10.5.7 15.7.7 1.9 0 3.7.7 5.2.4 1.5-.4 4.1-2.6 5.6-3.7 5.2-4.3 10.8-8.8 16.1-12.5M795.3-14.5s0 .3 0 0c26.6 1.5 48 9.4 53.6 31.8 3.4 12.7-.4 25.8-4.9 35.2-4.9 10.1-10.1 18-16.9 25.8-13.1 15.4-28.5 27.7-46.1 39-17.2 11.2-36 21-56.2 28.8-9.7 3.7-20.6 7.5-32.6 10.1-11.2 2.6-25.5 4.5-37.8 1.5-11.6-2.6-20.6-8.6-22.5-20.2-1.9-12.7 4.5-23.2 10.1-31.5 11.6-16.9 27.7-29.2 46.1-39 18.4-10.1 39.3-18.4 67.4-17.2-22.9 2.6-38.2 9.4-53.6 19.1-13.1 8.6-28.8 21.4-33.7 39-3.4 12 2.2 20.2 10.5 24 8.2 3.7 21.4 4.1 31.8 3 21.7-1.9 39.7-9.7 54.7-18 22.9-12.7 43.1-29.6 56.9-52.4 4.5-7.5 8.6-16.1 10.9-25.5 5.2-25.5-7.1-39.3-25.5-45s-45.3-2.6-64.1 2.2c-37.8 10.1-68.2 28.5-95.2 50.2-13.1 10.5-25.1 22.9-36.3 36.3-10.9 13.5-20.6 28.5-27 45.3-3 9.4-5.6 19.9-4.1 31.1 3.7 30 35.2 39 70.8 37.1 45-2.6 79-18 110.1-35.2-28.1 17.2-62.2 33.7-101.9 39.7-44.6 7.5-91.8-.7-94.8-42.3v-7.5c3-28.1 16.5-48.7 30-65.9 14.6-18.7 30.7-33.3 49.1-46.8 18-13.9 38.6-25.5 61.1-34.8 22.5-9.4 48.3-16.5 77.5-18h12.6m11.6 52.1c-2.2 5.2-5.6 10.9-8.2 16.5 7.1.7 15 .7 22.5 1.5-9 3.4-18.4 6.4-27.7 9.4-3 6-6.4 12-9.4 18-3-3.7-5.2-8.2-8.2-12l-27 9c7.5-5.2 15-10.9 22.5-16.1-2.2-3.7-4.9-7.5-7.1-11.2 5.2.4 10.5.7 15.7.7 1.9 0 3.7.7 5.2.4s4.1-2.6 5.6-3.7c5.2-4.2 10.8-8.7 16.1-12.5m210.4 91.9s0 .6 0 0c47.2 2.7 85.1 16.6 95 56.5 6 22.6-.7 45.9-8.6 62.5-8.6 17.9-17.9 31.9-29.9 45.9-23.3 27.2-50.5 49.2-81.7 69.1-30.6 19.9-63.8 37.2-99.7 51.2-17.3 6.6-36.5 13.3-57.8 17.9-19.9 4.7-45.2 8-67.1 2.7-20.6-4.7-36.5-15.3-39.9-35.9-3.3-22.6 8-41.2 17.9-55.8 20.6-29.9 49.2-51.8 81.7-69.1 32.6-17.9 69.8-32.6 119.6-30.6-40.5 4.7-67.8 16.6-95 33.9-23.3 15.3-51.2 37.9-59.8 69.1-6 21.3 4 35.9 18.6 42.5 14.6 6.6 37.9 7.3 56.5 5.3 38.5-3.3 70.4-17.3 97-31.9 40.5-22.6 76.4-52.5 101-93 8-13.3 15.3-28.6 19.3-45.2 9.3-45.2-12.6-69.8-45.2-79.7-32.6-10-80.4-4.7-113.6 4-67.1 17.9-120.9 50.5-168.8 89-23.3 18.6-44.5 40.5-64.5 64.5-19.3 23.9-36.5 50.5-47.8 80.4-5.3 16.6-10 35.2-7.3 55.2 6.6 53.2 62.5 69.1 125.6 65.8 79.7-4.7 140.2-31.9 195.4-62.5-49.8 30.6-110.3 59.8-180.8 70.4-79.1 13.3-162.8-1.3-168.1-75.1v-13.3c5.3-49.8 29.2-86.4 53.2-117 25.9-33.2 54.5-59.1 87.1-83.1 31.9-24.6 68.4-45.2 108.3-61.8s85.7-29.2 137.6-31.9h21.8m20.6 92.4c-4 9.3-10 19.3-14.6 29.2 12.6 1.3 26.6 1.3 39.9 2.7-15.9 6-32.6 11.3-49.2 16.6-5.3 10.6-11.3 21.3-16.6 31.9-5.3-6.6-9.3-14.6-14.6-21.3L935 296.8c13.3-9.3 26.6-19.3 39.9-28.6-4-6.6-8.6-13.3-12.6-19.9 9.3.7 18.6 1.3 27.9 1.3 3.3 0 6.6 1.3 9.3.7 2.7-.7 7.3-4.7 10-6.6 9.1-7.3 19.1-15.3 28.4-21.9M115-26.9s0 .2 0 0c14.7.8 26.5 5.2 29.7 17.6 1.9 7.1-.2 14.3-2.7 19.5-2.7 5.6-5.6 10-9.3 14.3-7.3 8.5-15.8 15.3-25.5 21.6-9.5 6.2-19.9 11.6-31.1 16-5.4 2.1-11.4 4.1-18 5.6-6.2 1.5-14.1 2.5-20.9.8-6.4-1.5-11.4-4.8-12.4-11.2-1-7.1 2.5-12.9 5.6-17.4 6.4-9.3 15.3-16.2 25.5-21.6 10-5.5 21.6-10.1 37.1-9.5-12.6 1.5-21.1 5.2-29.6 10.6-7.3 4.8-16 11.8-18.7 21.6-1.9 6.6 1.2 11.2 5.8 13.3s11.8 2.3 17.6 1.7c12-1 22-5.4 30.3-10 12.7-7.1 23.9-16.4 31.5-29 2.5-4.1 4.8-8.9 6-14.1 2.9-14.1-3.9-21.8-14.1-24.9s-25.1-1.5-35.5 1.2C65.5-15.2 48.7-5.1 33.7 6.9 26.4 12.7 19.8 19.6 13.6 27c-6 7.5-11.4 15.8-14.9 25.1-1.7 5.2-3.1 11-2.3 17.2C-1.5 86 15.9 90.9 35.6 89.9c24.9-1.5 43.8-10 61-19.5C81 80 62.1 89.1 40.2 92.4 15.5 96.5-10.7 92-12.3 69v-4.1c1.7-15.6 9.1-27 16.6-36.5C12.4 18 21.3 9.9 31.5 2.5c10-7.7 21.4-14.1 33.8-19.3s26.8-9.1 42.9-10h6.8M121.5 2c-1.2 2.9-3.1 6-4.6 9.1 3.9.4 8.3.4 12.4.8-5 1.9-10.2 3.5-15.3 5.2-1.7 3.3-3.5 6.6-5.2 10-1.7-2.1-2.9-4.6-4.6-6.6l-14.9 5c4.1-2.9 8.3-6 12.4-8.9-1.2-2.1-2.7-4.1-3.9-6.2 2.9.2 5.8.4 8.7.4 1 0 2.1.4 2.9.2.8-.2 2.3-1.5 3.1-2.1 2.9-2.4 6.1-4.9 9-6.9" opacity=".33" fill="none" stroke="#fff" stroke-width=".283" stroke-miterlimit="10"/><path d="M829.1-26.9s0 .7 0 0c47.5 2.7 85.6 16.7 95.7 56.9 6 22.7-.7 46.2-8.7 62.9-8.7 18-18.1 32.1-30.1 46.1-23.4 27.4-50.8 49.5-82.3 69.6-30.8 20.1-64.2 37.5-100.3 51.5-17.4 6.7-36.8 13.4-58.2 18.1-20.1 4.7-45.5 8-67.6 2.7-20.7-4.7-36.8-15.4-40.1-36.1-3.3-22.7 8-41.5 18.1-56.2 20.7-30.1 49.5-52.2 82.3-69.6 32.8-18.1 70.2-32.8 120.4-30.8-40.8 4.7-68.2 16.7-95.7 34.1-23.4 15.4-51.5 38.1-60.2 69.6-6 21.4 4 36.1 18.7 42.8 14.7 6.7 38.1 7.4 56.9 5.4 38.8-3.3 70.9-17.4 97.7-32.1 40.8-22.7 76.9-52.8 101.7-93.7 8-13.4 15.4-28.8 19.4-45.5 9.4-45.5-12.7-70.2-45.5-80.3s-80.9-4.7-114.4 4C669.3 10.6 615.2 43.3 567 82.1c-23.4 18.7-44.8 40.8-64.9 64.9-19.4 24.1-36.8 50.8-48.2 80.9-5.4 16.7-10 35.5-7.4 55.5 6.7 53.5 62.9 69.6 126.4 66.2 80.3-4.7 141.1-32.1 196.7-62.9-50.2 30.8-111 60.2-182 70.9C508 371 423.7 356.3 418.4 282v-13.4c5.4-50.2 29.4-87 53.5-117.7 26.1-33.4 54.9-59.5 87.6-83.6 32.1-24.8 68.9-45.5 109-62.2C708.6-11.6 754.8-24.3 807-27h22.1m20.8 93.1c-4 9.4-10 19.4-14.7 29.4 12.7 1.3 26.8 1.3 40.1 2.7-16.1 6-32.8 11.4-49.5 16.7-5.4 10.7-11.4 21.4-16.7 32.1-5.4-6.7-9.4-14.7-14.7-21.4l-48.2 16.1c13.4-9.4 26.8-19.4 40.1-28.8-4-6.7-8.7-13.4-12.7-20.1 9.4.7 18.7 1.3 28.1 1.3 3.3 0 6.7 1.3 9.4.7 2.7-.7 7.4-4.7 10-6.7 9.4-7.3 19.4-15.3 28.8-22m-592 80.6s0 .3 0 0c18.3 1 33 6.5 36.9 21.9 2.3 8.8-.3 17.8-3.4 24.3-3.4 7-7 12.4-11.6 17.8-9 10.6-19.6 19.1-31.7 26.8-11.9 7.7-24.8 14.5-38.7 19.9-6.7 2.6-14.2 5.2-22.4 7-7.7 1.8-17.5 3.1-26.1 1-8-1.8-14.2-5.9-15.5-13.9-1.3-8.8 3.1-16 7-21.7 8-11.6 19.1-20.1 31.7-26.8 12.6-7 27.1-12.6 46.4-11.9-15.7 1.8-26.3 6.5-36.9 13.2-9 5.9-19.9 14.7-23.2 26.8-2.3 8.3 1.5 13.9 7.2 16.5 5.7 2.6 14.7 2.8 21.9 2.1 15-1.3 27.4-6.7 37.7-12.4 15.7-8.8 29.7-20.4 39.2-36.1 3.1-5.2 5.9-11.1 7.5-17.5 3.6-17.5-4.9-27.1-17.5-31-12.6-3.9-31.2-1.8-44.1 1.5-26.1 7-47 19.6-65.5 34.6-9 7.2-17.3 15.7-25 25-7.5 9.3-14.2 19.6-18.6 31.2-2.1 6.5-3.9 13.7-2.8 21.4 2.6 20.6 24.3 26.8 48.8 25.5 31-1.8 54.4-12.4 75.9-24.3-19.4 11.9-42.8 23.2-70.2 27.4-30.7 5.2-63.2-.5-65.3-29.2v-5.2c2.1-19.4 11.4-33.5 20.6-45.4 10.1-12.9 21.2-23 33.8-32.3 12.4-9.5 26.6-17.5 42.1-24s33.3-11.4 53.4-12.4h8.4m8 36.1c-1.5 3.6-3.9 7.5-5.7 11.4 4.9.5 10.3.5 15.5 1-6.2 2.3-12.6 4.4-19.1 6.5-2.1 4.1-4.4 8.3-6.5 12.4-2.1-2.6-3.6-5.7-5.7-8.3l-18.6 6.2c5.2-3.6 10.3-7.5 15.5-11.1-1.5-2.6-3.4-5.2-4.9-7.7 3.6.3 7.2.5 10.8.5 1.3 0 2.6.5 3.6.3s2.8-1.8 3.9-2.6c3.7-2.9 7.6-6 11.2-8.6" opacity=".33" fill="none" stroke="#fff" stroke-width=".283" stroke-miterlimit="10"/><path d="M465.5 33.5s0 .3 0 0c26.6 1.5 48 9.4 53.6 31.8 3.4 12.7-.4 25.8-4.9 35.2-4.9 10.1-10.1 18-16.9 25.8-13.1 15.4-28.5 27.7-46.1 39-17.2 11.2-36 21-56.2 28.8-9.7 3.7-20.6 7.5-32.6 10.1-11.2 2.6-25.5 4.5-37.8 1.5-11.6-2.6-20.6-8.6-22.5-20.2-1.9-12.7 4.5-23.2 10.1-31.5 11.6-16.9 27.7-29.2 46.1-39 18.4-10.1 39.3-18.4 67.4-17.2-22.9 2.6-38.2 9.4-53.6 19.1-13.1 8.6-28.8 21.4-33.7 39-3.4 12 2.2 20.2 10.5 24 8.2 3.7 21.4 4.1 31.8 3 21.7-1.9 39.7-9.7 54.7-18 22.9-12.7 43.1-29.6 56.9-52.4 4.5-7.5 8.6-16.1 10.9-25.5 5.2-25.5-7.1-39.3-25.5-45-18.4-5.6-45.3-2.6-64.1 2.2-37.8 10.1-68.2 28.5-95.2 50.2-13.1 10.5-25.1 22.9-36.3 36.3-10.9 13.5-20.6 28.5-27 45.3-3 9.4-5.6 19.9-4.1 31.1 3.7 30 35.2 39 70.8 37.1 45-2.6 79-18 110.1-35.2-28.1 17.2-62.2 33.7-101.9 39.7-44.6 7.5-91.8-.7-94.8-42.3V199c3-28.1 16.5-48.7 30-65.9 14.6-18.7 30.7-33.3 49.1-46.8 18-13.9 38.6-25.5 61.1-34.8s48.3-16.5 77.5-18h12.6m11.6 52c-2.2 5.2-5.6 10.9-8.2 16.5 7.1.7 15 .7 22.5 1.5-9 3.4-18.4 6.4-27.7 9.4-3 6-6.4 12-9.4 18-3-3.7-5.2-8.2-8.2-12l-27 9c7.5-5.2 15-10.9 22.5-16.1-2.2-3.7-4.9-7.5-7.1-11.2 5.2.4 10.5.7 15.7.7 1.9 0 3.7.7 5.2.4 1.5-.4 4.1-2.6 5.6-3.7 5.2-4.2 10.8-8.7 16.1-12.5M154.1 300s0 .3 0 0c26.6 1.5 48 9.4 53.6 31.8 3.4 12.7-.4 25.8-4.9 35.2-4.9 10.1-10.1 18-16.9 25.8-13.1 15.4-28.5 27.7-46.1 39-17.2 11.2-36 21-56.2 28.8-9.7 3.7-20.6 7.5-32.6 10.1-11.2 2.6-25.5 4.5-37.8 1.5-11.6-2.6-20.6-8.6-22.5-20.2-1.9-12.7 4.5-23.2 10.1-31.5 11.6-16.9 27.7-29.2 46.1-39 18.4-10.1 39.3-18.4 67.4-17.2-22.9 2.6-38.2 9.4-53.6 19.1-13.1 8.6-28.8 21.4-33.7 39-3.4 12 2.2 20.2 10.5 24s21.4 4.1 31.8 3c21.7-1.9 39.7-9.7 54.7-18 22.9-12.7 43.1-29.6 56.9-52.4 4.5-7.5 8.6-16.1 10.9-25.5 5.2-25.5-7.1-39.3-25.5-45s-45.3-2.6-64.1 2.2c-37.6 10.2-68 28.6-94.9 50.3-13.1 10.5-25.1 22.9-36.3 36.3-10.9 13.5-20.6 28.5-27 45.3-3 9.4-5.6 19.9-4.1 31.1 3.7 30 35.2 39 70.8 37.1 45-2.6 79-18 110.1-35.2-28.1 17.2-62.2 33.7-101.9 39.7-44.6 7.5-91.8-.7-94.8-42.3v-7.5c3-28.1 16.5-48.7 30-65.9 14.6-18.7 30.7-33.3 49.1-46.8 18-13.9 38.6-25.5 61.1-34.8 22.5-9.4 48.3-16.5 77.5-18h12.3m11.6 52c-2.2 5.2-5.6 10.9-8.2 16.5 7.1.7 15 .7 22.5 1.5-9 3.4-18.4 6.4-27.7 9.4-3 6-6.4 12-9.4 18-3-3.7-5.2-8.2-8.2-12l-27 9c7.5-5.2 15-10.9 22.5-16.1-2.2-3.7-4.9-7.5-7.1-11.2 5.2.4 10.5.7 15.7.7 1.9 0 3.7.7 5.2.4 1.5-.4 4.1-2.6 5.6-3.7 5.3-4.2 10.9-8.7 16.1-12.5" opacity=".33" fill="none" stroke="#fff" stroke-width=".283" stroke-miterlimit="10"/><path d="M154.1 119.4s0 .4 0 0c26.6 1.5 48 9.4 53.6 31.8 3.4 12.7-.4 25.8-4.9 35.2-4.9 10.1-10.1 18-16.9 25.8-13.1 15.4-28.5 27.7-46.1 39-17.2 11.2-36 21-56.2 28.8-9.7 3.7-20.6 7.5-32.6 10.1-11.2 2.6-25.5 4.5-37.8 1.5C1.6 289-7.4 283-9.3 271.4c-1.9-12.7 4.5-23.2 10.1-31.5 11.6-16.9 27.7-29.2 46.1-39 18.4-10.1 39.3-18.4 67.4-17.2-22.9 2.6-38.2 9.4-53.6 19.1-13.1 8.6-28.8 21.4-33.7 39-3.4 12 2.2 20.2 10.5 24s21.4 4.1 31.8 3c21.7-1.9 39.7-9.7 54.7-18 22.9-12.7 43.1-29.6 56.9-52.4 4.5-7.5 8.6-16.1 10.9-25.5 5.2-25.5-7.1-39.3-25.5-45-18.4-5.6-45.3-2.6-64.1 2.2C64.4 140.2 34 158.6 7 180.3c-13.1 10.5-25.1 22.9-36.3 36.3-10.9 13.5-20.6 28.5-27 45.3-3 9.4-5.6 19.9-4.1 31.1 3.7 30 35.2 39 70.8 37.1 45-2.6 79-18 110.1-35.2-28.1 17.2-62.2 33.7-101.9 39.7-44.6 7.5-91.8-.7-94.8-42.3V285c3-28.1 16.5-48.7 30-65.9 14.6-18.7 30.7-33.3 49.1-46.8 18-13.9 38.6-25.5 61.1-34.8s48.3-16.5 77.5-18h12.6m11.6 52c-2.2 5.2-5.6 10.9-8.2 16.5 7.1.7 15 .7 22.5 1.5-9 3.4-18.4 6.4-27.7 9.4-3 6-6.4 12-9.4 18-3-3.7-5.2-8.2-8.2-12l-27 9c7.5-5.2 15-10.9 22.5-16.1-2.2-3.7-4.9-7.5-7.1-11.2 5.2.4 10.5.7 15.7.7 1.9 0 3.7.7 5.2.4s4.1-2.6 5.6-3.7c5.3-4.2 10.9-8.7 16.1-12.5m893.6-197.6s0 .4 0 0c26.6 1.5 48 9.4 53.6 31.8 3.4 12.7-.4 25.8-4.9 35.2-4.9 10.1-10.1 18-16.9 25.8-13.1 15.4-28.5 27.7-46.1 39-17.2 11.2-36 21-56.2 28.8-9.7 3.7-20.6 7.5-32.6 10.1-11.2 2.6-25.5 4.5-37.8 1.5-11.6-2.6-20.6-8.6-22.5-20.2-1.9-12.7 4.5-23.2 10.1-31.5 11.6-16.9 27.7-29.2 46.1-39 18.4-10.1 39.3-18.4 67.4-17.2-22.9 2.6-38.2 9.4-53.6 19.1-13.1 8.6-28.8 21.4-33.7 39-3.4 12 2.2 20.2 10.5 24 8.2 3.7 21.4 4.1 31.8 3 21.7-1.9 39.7-9.7 54.7-18 22.9-12.7 43.1-29.6 56.9-52.4 4.5-7.5 8.6-16.1 10.9-25.5 5.2-25.5-7.1-39.3-25.5-45s-45.3-2.6-64.1 2.2c-37.6 10.3-68 28.7-94.9 50.4-13.1 10.5-25.1 22.9-36.3 36.3-10.9 13.5-20.6 28.5-27 45.3-3 9.4-5.6 19.9-4.1 31.1 3.7 30 35.2 39 70.8 37.1 45-2.6 79-18 110.1-35.2-28.1 17.2-62.2 33.7-101.9 39.7-44.6 7.5-91.8-.7-94.8-42.3v-7.5c3-28.1 16.5-48.7 30-65.9 14.6-18.7 30.7-33.3 49.1-46.8C926.4 12.9 947 1.3 969.5-8s48.3-16.5 77.5-18h12.3m11.6 52c-2.2 5.2-5.6 10.9-8.2 16.5 7.1.7 15 .7 22.5 1.5-9 3.4-18.4 6.4-27.7 9.4-3 6-6.4 12-9.4 18-3-3.7-5.2-8.2-8.2-12l-27 9c7.5-5.2 15-10.9 22.5-16.1-2.2-3.7-4.9-7.5-7.1-11.2 5.2.4 10.5.7 15.7.7 1.9 0 3.7.7 5.2.4s4.1-2.6 5.6-3.7c5.3-4.3 10.9-8.7 16.1-12.5m-30.1 286.9s0 .4 0 0c26.6 1.5 48 9.4 53.6 31.8 3.4 12.7-.4 25.8-4.9 35.2-4.9 10.1-10.1 18-16.9 25.8-13.1 15.4-28.5 27.7-46.1 39-17.2 11.2-36 21-56.2 28.8-9.7 3.7-20.6 7.5-32.6 10.1-11.2 2.6-25.5 4.5-37.8 1.5-11.6-2.6-20.6-8.6-22.5-20.2-1.9-12.7 4.5-23.2 10.1-31.5 11.6-16.9 27.7-29.2 46.1-39 18.4-10.1 39.3-18.4 67.4-17.2-22.9 2.6-38.2 9.4-53.6 19.1-13.1 8.6-28.8 21.4-33.7 39-3.4 12 2.2 20.2 10.5 24 8.2 3.7 21.4 4.1 31.8 3 21.7-1.9 39.7-9.7 54.7-18 22.9-12.7 43.1-29.6 56.9-52.4 4.5-7.5 8.6-16.1 10.9-25.5 5.2-25.5-7.1-39.3-25.5-45s-45.3-2.6-64.1 2.2c-37.8 10.1-68.2 28.5-95.2 50.2-13.1 10.5-25.1 22.9-36.3 36.3-10.9 13.5-20.6 28.5-27 45.3-3 9.4-5.6 19.9-4.1 31.1 3.7 30 35.2 39 70.8 37.1 45-2.6 79-18 110.1-35.2-28.1 17.2-62.2 33.7-101.9 39.7-44.6 7.5-91.8-.7-94.8-42.3v-7.5c3-28.1 16.5-48.7 30-65.9 14.6-18.7 30.7-33.3 49.1-46.8 18-13.9 38.6-25.5 61.1-34.8 22.5-9.4 48.3-16.5 77.5-18h12.6m11.6 52.2c-2.2 5.2-5.6 10.9-8.2 16.5 7.1.7 15 .7 22.5 1.5-9 3.4-18.4 6.4-27.7 9.4-3 6-6.4 12-9.4 18-3-3.7-5.2-8.2-8.2-12l-27 9c7.5-5.2 15-10.9 22.5-16.1-2.2-3.7-4.9-7.5-7.1-11.2 5.2.4 10.5.7 15.7.7 1.9 0 3.7.7 5.2.4 1.5-.4 4.1-2.6 5.6-3.7 5.2-4.3 10.8-8.8 16.1-12.5" opacity=".33" fill="none" stroke="#fff" stroke-width=".283" stroke-miterlimit="10"/></svg>