<svg id="Layer_1" xmlns="http://www.w3.org/2000/svg" width="24" height="24" viewBox="0 0 24 24"><style>.st0{fill:#fff}</style><circle class="st0" cx="2.5" cy="10.5" r=".5"/><circle class="st0" cx="4.5" cy="10.5" r=".5"/><circle class="st0" cx="6.5" cy="10.5" r=".5"/><path class="st0" d="M21.5 0h-12C8.1 0 7 1.1 7 2.5V8H2.5C1.1 8 0 9.1 0 10.5v11C0 22.9 1.1 24 2.5 24h12c1.4 0 2.5-1.1 2.5-2.5V16h4.5c1.4 0 2.5-1.1 2.5-2.5v-11C24 1.1 22.9 0 21.5 0zm-12 1h12c.8 0 1.5.7 1.5 1.5V4H8V2.5C8 1.7 8.7 1 9.5 1zm-7 8h12c.8 0 1.5.7 1.5 1.5V12H1v-1.5C1 9.7 1.7 9 2.5 9zM16 21.5c0 .8-.7 1.5-1.5 1.5h-12c-.8 0-1.5-.7-1.5-1.5V13h15v8.5zm5.5-6.5H17v-4.5C17 9.1 15.9 8 14.5 8H8V5h15v8.5c0 .8-.7 1.5-1.5 1.5z"/><circle class="st0" cx="9.5" cy="2.5" r=".5"/><circle class="st0" cx="11.5" cy="2.5" r=".5"/><circle class="st0" cx="13.5" cy="2.5" r=".5"/><path class="st0" d="M.5 7c.3 0 .5-.2.5-.5v-2C1 3.7 1.7 3 2.5 3h.8L2.1 4.1c-.1.2-.1.6 0 .8.1.1.3.1.4.1s.3 0 .4-.1l2-2 .1-.1v-.4c0-.1-.1-.1-.1-.2l-2-2C2.7 0 2.3 0 2.1.1s-.1.6 0 .8L3.3 2h-.8C1.1 2 0 3.1 0 4.5v2c0 .3.2.5.5.5zm23 10c-.3 0-.5.2-.5.5v2c0 .8-.7 1.5-1.5 1.5h-.8l1.1-1.1c.2-.2.2-.5 0-.7s-.5-.2-.7 0l-2 2-.1.1c-.1.1-.1.3 0 .4 0 0 0 .1.1.1v.1l2 2c.1.1.2.1.4.1s.3 0 .4-.1c.2-.2.2-.5 0-.7L20.7 22h.8c1.4 0 2.5-1.1 2.5-2.5v-2c0-.3-.2-.5-.5-.5z"/></svg>