<svg xmlns="http://www.w3.org/2000/svg" xmlns:xlink="http://www.w3.org/1999/xlink" viewBox="0 0 800 400"><symbol id="a" viewBox="-86.1 -86.2 168.7 170"><path fill="#FFF" d="M14.7 69.2l1.7 10.5c.3 1.9-1 3.7-2.9 4.1s-3.7-1-4.1-2.9L7.8 70.3C-37.2 75.7-78.7 44.6-86-.5l-.1-.8c7.2 6.6 17.3 10 27.7 8.3C-45.8 5-36-4-32.2-15.4c6.5 8.7 17 14 28.4 13.4l-10.3-63.9c-1.6-9.6 5-18.7 14.6-20.3 9.6-1.6 18.7 5 20.3 14.6.3 1.9-1 3.7-2.9 4.1s-3.7-1-4.1-2.9C12.8-76 7.4-80 1.6-79s-9.7 6.4-8.8 12.2L3.1-3c11-3 19.3-11.3 22.7-21.6 7.1 9.6 19.2 15 31.9 13 10.4-1.7 18.9-8.1 23.7-16.6l.1.8c7.3 45-22.4 87.5-66.8 96.6zM58.8-4.6c-7.4 1.2-15 .3-21.9-2.6-3.3-1.4-6.4-3.2-9.2-5.4-2 3-4.3 5.7-7 8C15.1.3 8.2 3.6.8 4.7s-15 .3-21.9-2.6c-3.3-1.4-6.4-3.2-9.2-5.4-2 3-4.3 5.7-7 8-5.6 4.9-12.5 8.1-19.9 9.3-6.1 1-12.1.6-17.9-1.2 1.8 5 4.2 9.8 7.1 14.4C-62.7 35.7-55.8 43-47.6 49c8.2 5.9 17.3 10.1 27.1 12.5C-10.4 64 0 64.4 10.4 62.7 20.5 61.1 30.2 57.5 39 52c8.5-5.3 15.8-12.2 21.8-20.4 5.9-8.2 10.1-17.3 12.5-27.1 1.3-5.2 2-10.5 2.2-15.9-5 3.5-10.6 5.8-16.7 6.8z"/></symbol><use xlink:href="#a" width="168.7" height="170" x="-86.1" y="-86.2" transform="scale(1 -1) rotate(10.684 510.989 437.5)" overflow="visible" opacity=".06"/><use xlink:href="#a" width="168.7" height="170" x="-86.1" y="-86.2" transform="matrix(.3424 .08488 .08488 -.3424 158.401 113.439)" overflow="visible" opacity=".06"/><use xlink:href="#a" width="168.7" height="170" x="-86.1" y="-86.2" transform="matrix(.3184 -.1518 -.1518 -.3184 168.075 42.92)" overflow="visible" opacity=".06"/><use xlink:href="#a" width="168.7" height="170" x="-86.1" y="-86.2" transform="matrix(.6014 -.2077 -.2077 -.6014 372.75 122.877)" overflow="visible" opacity=".06"/><use xlink:href="#a" width="168.7" height="170" x="-86.1" y="-86.2" transform="matrix(.3506 .05591 .05591 -.3506 379.79 37.034)" overflow="visible" opacity=".06"/><use xlink:href="#a" width="168.7" height="170" x="-86.1" y="-86.2" transform="matrix(.4457 .07109 .07109 -.4457 223.638 98.233)" overflow="visible" opacity=".06"/><use xlink:href="#a" width="168.7" height="170" x="-86.1" y="-86.2" transform="matrix(.3905 -.2264 -.2264 -.3905 214.985 45.983)" overflow="visible" opacity=".06"/><use xlink:href="#a" width="168.7" height="170" x="-86.1" y="-86.2" transform="scale(.225 -.225) rotate(30.108 1474.973 1937.263)" overflow="visible" opacity=".06"/><use xlink:href="#a" width="168.7" height="170" x="-86.1" y="-86.2" transform="matrix(.2361 .1205 .1205 -.2361 273.8 55.292)" overflow="visible" opacity=".06"/><use xlink:href="#a" width="168.7" height="170" x="-86.1" y="-86.2" transform="matrix(.3776 -.1575 -.1575 -.3776 328.19 42.09)" overflow="visible" opacity=".06"/><use xlink:href="#a" width="168.7" height="170" x="-86.1" y="-86.2" transform="matrix(.4864 .1038 .1038 -.4864 311.42 121.656)" overflow="visible" opacity=".06"/><use xlink:href="#a" width="168.7" height="170" x="-86.1" y="-86.2" transform="matrix(.6513 .139 .139 -.6513 89.943 100.378)" overflow="visible" opacity=".06"/><use xlink:href="#a" width="168.7" height="170" x="-86.1" y="-86.2" transform="scale(1 -1) rotate(10.684 727.092 2424.033)" overflow="visible" opacity=".06"/><use xlink:href="#a" width="168.7" height="170" x="-86.1" y="-86.2" transform="matrix(.3424 .08488 .08488 -.3424 552.74 116.671)" overflow="visible" opacity=".06"/><use xlink:href="#a" width="168.7" height="170" x="-86.1" y="-86.2" transform="scale(.3527 -.3527) rotate(25.49 998.62 3312.29)" overflow="visible" opacity=".06"/><use xlink:href="#a" width="168.7" height="170" x="-86.1" y="-86.2" transform="matrix(.4457 .07109 .07109 -.4457 475.436 61.493)" overflow="visible" opacity=".06"/><use xlink:href="#a" width="168.7" height="170" x="-86.1" y="-86.2" transform="matrix(.3905 -.2264 -.2264 -.3905 621.341 42.29)" overflow="visible" opacity=".06"/><use xlink:href="#a" width="168.7" height="170" x="-86.1" y="-86.2" transform="matrix(.1947 -.1129 -.1129 -.1947 657.843 110.93)" overflow="visible" opacity=".06"/><use xlink:href="#a" width="168.7" height="170" x="-86.1" y="-86.2" transform="matrix(.2361 .1205 .1205 -.2361 668.139 58.524)" overflow="visible" opacity=".06"/><use xlink:href="#a" width="168.7" height="170" x="-86.1" y="-86.2" transform="matrix(.3776 -.1575 -.1575 -.3776 722.528 45.322)" overflow="visible" opacity=".06"/><use xlink:href="#a" width="168.7" height="170" x="-86.1" y="-86.2" transform="matrix(.4864 .1038 .1038 -.4864 705.758 124.888)" overflow="visible" opacity=".06"/><use xlink:href="#a" width="168.7" height="170" x="-86.1" y="-86.2" transform="matrix(.3506 .05591 .05591 -.3506 609.49 52.68)" overflow="visible" opacity=".06"/><use xlink:href="#a" width="168.7" height="170" x="-86.1" y="-86.2" transform="matrix(.3905 -.2264 -.2264 -.3905 416.21 70.85)" overflow="visible" opacity=".06"/><use xlink:href="#a" width="168.7" height="170" x="-86.1" y="-86.2" transform="scale(.225 -.225) rotate(30.108 2114.503 3799.799)" overflow="visible" opacity=".06"/><use xlink:href="#a" width="168.7" height="170" x="-86.1" y="-86.2" transform="matrix(.2361 .1205 .1205 -.2361 503.5 70.938)" overflow="visible" opacity=".06"/><use xlink:href="#a" width="168.7" height="170" x="-86.1" y="-86.2" transform="matrix(.3776 -.1575 -.1575 -.3776 594.156 88.043)" overflow="visible" opacity=".06"/><use xlink:href="#a" width="168.7" height="170" x="-86.1" y="-86.2" transform="matrix(.4864 .1038 .1038 -.4864 329.228 96.435)" overflow="visible" opacity=".06"/><use xlink:href="#a" width="168.7" height="170" x="-86.1" y="-86.2" transform="scale(1 -1) rotate(10.684 859.873 3686.231)" overflow="visible" opacity=".06"/></svg>